<svg width="127" height="105" viewBox="0 0 127 105" fill="none" xmlns="http://www.w3.org/2000/svg">
<path d="M104.129 82.342L103.851 15.2582C103.817 6.83238 96.7247 0.157822 88.3122 0.633528C76.0282 1.32816 64.0845 4.92823 53.4629 11.1378L40.4693 18.7341C32.0082 23.6805 24.23 29.7118 17.3325 36.6747L9.85967 44.2182C-4.71331 58.929 9.05259 83.5389 29.2148 78.8201L38.9231 76.5479C45.7515 74.9498 52.8529 77.772 56.7215 83.6213L63.9317 94.5229C75.9428 112.683 104.219 104.115 104.129 82.342Z" fill="#EBF4FB"/>
<path d="M105.231 82.8118L108.576 80.7318C143.957 58.7276 124.164 4.02659 82.8943 9.75844H82.3953C70.448 9.75844 58.554 11.3513 47.0276 14.4948L45.0591 15.0317C39.6303 16.5123 34.3678 18.5465 29.3546 21.1022L22.505 24.5942C15.2499 28.2929 9.20572 33.9919 5.08737 41.0173L2.01236 46.2629C-2.09812 53.2749 0.626594 62.3021 7.93014 65.869C13.1521 68.4192 18.9412 69.5868 24.7435 69.2599L46.5606 68.0308C49.6269 67.858 52.6141 69.0414 54.7303 71.267L60.2402 77.0619C71.9763 89.405 90.7684 91.8066 105.231 82.8118Z" fill="#56E2DF"/>
<path d="M84.3945 33.758H60.3945C59.6582 33.758 59.0612 34.355 59.0612 35.0914V39.0914C59.0612 39.8277 59.6582 40.4247 60.3945 40.4247H84.3945C85.1309 40.4247 85.7279 39.8277 85.7279 39.0914V35.0914C85.7279 34.355 85.1309 33.758 84.3945 33.758Z" stroke="white" stroke-width="2.28571" strokeLinecap="round" strokeLinejoin="round"/>
<path d="M61.7289 40.4239V55.0906C61.7289 55.7978 62.0098 56.4761 62.5099 56.9762C63.01 57.4763 63.6883 57.7572 64.3955 57.7572H67.0622" stroke="white" stroke-width="2.28571" strokeLinecap="round" strokeLinejoin="round"/>
<path d="M83.0622 40.4239V55.0906C83.0622 55.7978 82.7813 56.4761 82.2812 56.9762C81.7811 57.4763 81.1028 57.7572 80.3955 57.7572H77.7289" stroke="white" stroke-width="2.28571" strokeLinecap="round" strokeLinejoin="round"/>
<path d="M68.3953 49.7556L72.3953 45.7556L76.3953 49.7556" stroke="white" stroke-width="2.28571" strokeLinecap="round" strokeLinejoin="round"/>
<path d="M72.3947 45.7556V57.7556" stroke="white" stroke-width="2.28571" strokeLinecap="round" strokeLinejoin="round"/>
</svg>
