<svg width="671" height="561" viewBox="0 0 671 561" fill="none" xmlns="http://www.w3.org/2000/svg">
<path d="M56.4309 240.593L111.565 205.271C145.556 183.496 173.03 152.939 191.083 116.833L195.803 107.394C209.136 80.7281 227.611 56.9624 250.165 37.465L257.399 31.2122C342.895 -42.6969 475.075 23.6272 466.927 136.347C465.792 152.039 475.412 166.513 490.32 171.543L628 218L644.606 248.715C740.873 426.78 555.478 625.081 371.347 540.997L242.695 482.248C207.122 466.004 168.073 458.844 129.05 461.41C5.28186 469.552 -48.0105 307.502 56.4309 240.593Z" fill="url(#paint0_linear_99_54)"/>
<defs>
<linearGradient id="paint0_linear_99_54" x1="345.25" y1="-138.5" x2="345.25" y2="845" gradientUnits="userSpaceOnUse">
<stop offset="0.187645" stop-color="#E4EAFF"/>
<stop offset="0.54" stop-color="#FAEFF7"/>
</linearGradient>
</defs>
</svg>
