<svg width="143" height="104" viewBox="0 0 143 104" fill="none" xmlns="http://www.w3.org/2000/svg">
<path d="M120.478 81.8343L120.201 14.7679C120.166 6.34426 113.076 -0.328568 104.665 0.147014C92.3846 0.841463 80.4439 4.44061 69.825 10.6486L56.8348 18.2428C48.376 23.188 40.5998 29.2177 33.7041 36.1788L26.2332 43.7203C11.664 58.4273 25.4263 83.0308 45.5833 78.3132L55.2891 76.0416C62.1157 74.4439 69.2152 77.2654 73.0829 83.1132L80.2912 94.012C92.2992 112.168 120.568 103.602 120.478 81.8343Z" fill="#FDF9CC"/>
<path d="M29.1233 1.40413L44.0251 4.26606C56.158 6.59623 68.5125 7.5695 80.8607 7.16794L104.055 6.41365C116.654 6.00392 128.873 10.7641 137.874 19.589C143.905 25.5014 143.325 35.378 136.644 40.5444L116.613 56.0351C113.565 58.3922 111.781 62.028 111.781 65.881C111.781 69.3771 110.6 72.8114 108.471 75.585C101.862 84.1964 88.7815 84.3611 82.1442 75.7716L73.0305 63.9774C70.9593 61.2971 67.861 59.606 64.4863 59.314L30.1081 56.3389C22.2071 55.6552 14.8897 51.899 9.72859 45.8777C7.11503 42.8286 5.02652 39.3662 3.54845 35.6321L2.64982 33.3619C-4.22438 15.9955 10.7811 -2.11855 29.1233 1.40413Z" fill="#FDD580"/>
<path d="M77.1154 36.2722H59.7821" stroke="white" stroke-width="2.28571" strokeLinecap="round" strokeLinejoin="round"/>
<path d="M77.1154 44.2737H59.7821" stroke="white" stroke-width="2.28571" strokeLinecap="round" strokeLinejoin="round"/>
<path d="M69.1154 28.2726H59.7821" stroke="white" stroke-width="2.28571" strokeLinecap="round" strokeLinejoin="round"/>
<path d="M83.7817 44.2726V30.9392C83.7817 30.232 83.5007 29.5537 83.0006 29.0536C82.5005 28.5535 81.8222 28.2726 81.115 28.2726H74.4483" stroke="white" stroke-width="2.28571" strokeLinecap="round" strokeLinejoin="round"/>
<path d="M77.115 30.9405L74.4483 28.2738L77.115 25.6071" stroke="white" stroke-width="2.28571" strokeLinecap="round" strokeLinejoin="round"/>
</svg>
