<svg width="83" height="88" viewBox="0 0 83 88" fill="none" xmlns="http://www.w3.org/2000/svg">
<path d="M82.3484 69.0869L78.759 17.1761C78.3082 10.656 72.483 5.84652 65.9955 6.63794C56.5223 7.79357 47.4586 11.181 39.5495 16.5217L29.8743 23.0551C23.5741 27.3095 17.857 32.3691 12.8684 38.1055L7.4637 44.3204C-3.07612 56.4401 8.81711 74.7963 24.1858 70.1295L31.586 67.8824C36.791 66.3018 42.4296 68.1291 45.7183 72.4619L51.8476 80.5374C62.0581 93.9899 83.5133 85.9352 82.3484 69.0869Z" fill="#D0F9FA"/>
<path d="M78.4302 64.2061L78.2066 10.11C78.1843 4.69524 73.6267 0.405888 68.2205 0.711597C57.3393 1.3269 46.7595 4.51587 37.3508 10.0163L29.4555 14.632C22.6248 18.6254 16.3454 23.4945 10.777 29.1156L5.30947 34.6349C-5.99422 46.0455 4.68344 65.1344 20.3225 61.4742L27.8528 59.7118C33.1493 58.4722 38.6576 60.6612 41.6583 65.1983L47.251 73.6543C56.5675 87.7406 78.5 81.0945 78.4302 64.2061Z" fill="#7CA2F3"/>
<path d="M36.9399 48.0281H55.6065C56.3138 48.0281 56.9921 47.7471 57.4922 47.247C57.9923 46.7469 58.2732 46.0687 58.2732 45.3614V28.0281L51.6065 21.3614H39.6065C38.8993 21.3614 38.221 21.6424 37.7209 22.1425C37.2208 22.6426 36.9399 23.3208 36.9399 24.0281V26.6948" stroke="white" stroke-width="2.28571" strokeLinecap="round" strokeLinejoin="round"/>
<path d="M50.2731 21.3614V26.6948C50.2731 27.402 50.5541 28.0803 51.0542 28.5804C51.5542 29.0805 52.2325 29.3614 52.9398 29.3614H58.2731" stroke="white" stroke-width="2.28571" strokeLinecap="round" strokeLinejoin="round"/>
<path d="M35.6058 42.6933C36.3422 42.6933 36.9392 42.0963 36.9392 41.36C36.9392 40.6236 36.3422 40.0266 35.6058 40.0266C34.8694 40.0266 34.2725 40.6236 34.2725 41.36C34.2725 42.0963 34.8694 42.6933 35.6058 42.6933Z" stroke="white" stroke-width="2.28571" strokeLinecap="round" strokeLinejoin="round"/>
<path d="M34.2725 41.3606V37.3606C34.2725 35.9461 34.8344 34.5895 35.8346 33.5893C36.8348 32.5892 38.1913 32.0273 39.6058 32.0273C41.0203 32.0273 42.3769 32.5892 43.3771 33.5893C44.3773 34.5895 44.9392 35.9461 44.9392 37.3606V41.3606" stroke="white" stroke-width="2.28571" strokeLinecap="round" strokeLinejoin="round"/>
<path d="M43.6061 42.6933C44.3425 42.6933 44.9395 42.0963 44.9395 41.36C44.9395 40.6236 44.3425 40.0266 43.6061 40.0266C42.8698 40.0266 42.2728 40.6236 42.2728 41.36C42.2728 42.0963 42.8698 42.6933 43.6061 42.6933Z" stroke="white" stroke-width="2.28571" strokeLinecap="round" strokeLinejoin="round"/>
</svg>
