<svg width="106" height="110" viewBox="0 0 106 110" fill="none" xmlns="http://www.w3.org/2000/svg">
<path d="M105.417 86.1811L105.128 16.0871C105.091 7.2832 97.6811 0.309135 88.8912 0.806187C76.056 1.53199 63.5763 5.29362 52.478 11.7818L38.9014 19.7189C30.0607 24.8874 21.9335 31.1893 14.7264 38.4645L6.9183 46.3465C-8.3086 61.7175 6.07499 87.4316 27.1419 82.5011L37.2859 80.127C44.4207 78.4571 51.8407 81.406 55.8829 87.5177L63.4167 98.9086C75.9667 117.884 105.511 108.931 105.417 86.1811Z" fill="#FEF5F8"/>
<path d="M25.2869 59.1594L32.1358 60.3824C41.4158 62.0396 50.2855 65.4839 58.252 70.5238L59.8917 71.5612C66.6707 75.85 75.0988 76.6163 82.5401 73.6204L83.2539 73.333C97.3799 67.6459 103.896 51.3146 97.5649 37.4652C94.8495 31.5252 89.2187 27.4436 82.7286 26.7109L70.1768 25.2937C64.9567 24.7044 60.0077 22.6584 55.8953 19.3896L47.5685 12.7708C44.4086 10.2591 40.4911 8.89183 36.4546 8.89183C14.3794 8.89183 1.48182 33.8146 14.0665 51.9513C16.6979 55.7437 20.7429 58.348 25.2869 59.1594Z" fill="#FCB1AC"/>
<path d="M52.5826 49.783L55.2493 52.4497L60.5826 47.1164" stroke="white" stroke-width="2.28571" strokeLinecap="round" strokeLinejoin="round"/>
<path d="M63.2492 40.4476H49.9159C48.4431 40.4476 47.2492 41.6415 47.2492 43.1143V56.4476C47.2492 57.9204 48.4431 59.1143 49.9159 59.1143H63.2492C64.722 59.1143 65.9159 57.9204 65.9159 56.4476V43.1143C65.9159 41.6415 64.722 40.4476 63.2492 40.4476Z" stroke="white" stroke-width="2.28571" strokeLinecap="round" strokeLinejoin="round"/>
<path d="M41.9158 51.1163C40.4491 51.1163 39.2491 49.9163 39.2491 48.4497V35.1163C39.2491 33.6497 40.4491 32.4497 41.9158 32.4497H55.2491C56.7158 32.4497 57.9158 33.6497 57.9158 35.1163" stroke="white" stroke-width="2.28571" strokeLinecap="round" strokeLinejoin="round"/>
</svg>
