<svg width="319" height="386" viewBox="0 0 319 386" fill="none" xmlns="http://www.w3.org/2000/svg">
<rect x="34.5804" y="1.73182" width="283.435" height="357.744" rx="30.2543" transform="rotate(5.2684 34.5804 1.73182)" fill="white"/>
<rect x="34.5804" y="1.73182" width="283.435" height="357.744" rx="30.2543" transform="rotate(5.2684 34.5804 1.73182)" stroke="#F3F0F0" stroke-width="3.18466"/>
<path d="M74.3385 44.5715L75.0824 36.5039L71.9619 36.2162L72.0368 35.4044L79.2164 36.0664L79.1416 36.8782L76.0211 36.5905L75.2772 44.658L74.3385 44.5715ZM83.5086 45.4171L83.6443 43.9456L83.6285 43.7011L83.8554 41.2403C83.9077 40.6737 83.7871 40.2233 83.4939 39.8893C83.209 39.556 82.7537 39.3605 82.128 39.3028C81.6967 39.263 81.2799 39.2971 80.8776 39.405C80.4754 39.5129 80.128 39.6727 79.8356 39.8845L79.4917 39.1748C79.8564 38.9185 80.2826 38.736 80.7702 38.6275C81.2586 38.5105 81.765 38.4762 82.2893 38.5245C83.1518 38.604 83.7958 38.8809 84.2211 39.3551C84.6557 39.8216 84.8328 40.4903 84.7525 41.3614L84.3712 45.4966L83.5086 45.4171ZM81.2068 45.2688C80.7079 45.2228 80.2798 45.1023 79.9225 44.9073C79.5745 44.7046 79.3165 44.4506 79.1485 44.1451C78.9813 43.8312 78.9152 43.484 78.9503 43.1034C78.9823 42.7567 79.0915 42.4512 79.2779 42.187C79.4735 41.915 79.7652 41.7117 80.1529 41.5768C80.5498 41.4344 81.0654 41.3923 81.6996 41.4508L83.9956 41.6625L83.9336 42.3348L81.663 42.1255C81.0203 42.0662 80.5616 42.139 80.2868 42.344C80.0205 42.5497 79.8718 42.8217 79.8406 43.1599C79.8055 43.5405 79.9254 43.8586 80.2003 44.1142C80.4753 44.3698 80.8791 44.5222 81.4119 44.5713C81.9193 44.6181 82.3653 44.5441 82.75 44.3493C83.1439 44.1468 83.4457 43.8335 83.6554 43.4094L83.801 44.0496C83.5914 44.4738 83.263 44.7974 82.816 45.0206C82.3775 45.2445 81.8411 45.3273 81.2068 45.2688ZM88.6001 45.9505C88.0504 45.8998 87.5374 45.7758 87.0609 45.5783C86.5853 45.3724 86.2188 45.1382 85.9616 44.8757L86.433 44.2028C86.6849 44.4307 87.0153 44.6402 87.424 44.8315C87.8336 45.0142 88.271 45.127 88.7361 45.1699C89.3703 45.2284 89.8359 45.1733 90.1329 45.0045C90.4307 44.8273 90.5948 44.5738 90.6252 44.2439C90.6478 43.9987 90.585 43.801 90.4368 43.6509C90.2979 43.4931 90.1047 43.3687 89.8572 43.2776C89.6105 43.1781 89.3331 43.0886 89.0249 43.009C88.7167 42.9294 88.4092 42.8414 88.1026 42.7449C87.8044 42.6491 87.5343 42.5261 87.2923 42.3759C87.0511 42.2172 86.8606 42.0163 86.721 41.7731C86.5899 41.5308 86.5418 41.2193 86.5769 40.8388C86.6104 40.4751 86.7419 40.1589 86.9714 39.8901C87.2009 39.6213 87.5175 39.4245 87.9213 39.2997C88.3344 39.1672 88.8242 39.1271 89.3908 39.1793C89.8221 39.2191 90.2479 39.3181 90.6683 39.4762C91.0894 39.6259 91.431 39.8067 91.6929 40.0185L91.233 40.7052C90.9557 40.475 90.6518 40.302 90.3214 40.1862C89.9917 40.062 89.6577 39.9843 89.3195 39.9531C88.719 39.8978 88.2653 39.9625 87.9583 40.1474C87.6605 40.3246 87.4968 40.5739 87.4672 40.8953C87.4438 41.149 87.5016 41.3547 87.6405 41.5125C87.788 41.6711 87.9846 41.8044 88.2305 41.9123C88.4856 42.0126 88.7631 42.1022 89.0629 42.181C89.3711 42.2606 89.6739 42.3524 89.9713 42.4566C90.278 42.5531 90.5523 42.6765 90.7943 42.8268C91.0455 42.9693 91.2367 43.1618 91.3679 43.4041C91.5083 43.6388 91.5617 43.938 91.5282 44.3016C91.4923 44.6906 91.3512 45.0187 91.1048 45.286C90.8677 45.5456 90.5345 45.7366 90.1053 45.8591C89.6854 45.9738 89.1836 46.0043 88.6001 45.9505ZM93.8806 44.6337L94.0124 43.4817L98.5089 40.0841L99.6125 40.1859L96.4238 42.719L95.8766 43.1035L93.8806 44.6337ZM93.0112 46.2933L93.8791 36.8812L94.7797 36.9642L93.9118 46.3764L93.0112 46.2933ZM98.1739 46.7694L95.7153 43.0503L96.3631 42.4064L99.2775 46.8711L98.1739 46.7694ZM104.102 47.316L104.793 39.8192C104.847 39.2273 105.065 38.7655 105.445 38.4338C105.825 38.1021 106.341 37.9663 106.992 38.0264C107.246 38.0498 107.488 38.1062 107.719 38.1957C107.949 38.2852 108.138 38.4092 108.286 38.5678L107.919 39.212C107.802 39.0904 107.662 38.9964 107.497 38.9301C107.334 38.8553 107.155 38.8089 106.96 38.791C106.58 38.7559 106.278 38.8347 106.056 39.0274C105.833 39.2201 105.703 39.5236 105.665 39.938L105.571 40.9528L105.558 41.3737L105.002 47.399L104.102 47.316ZM103.454 41.2949L103.523 40.5465L107.646 40.9266L107.577 41.675L103.454 41.2949ZM110.845 48.0018C110.202 47.9425 109.636 47.7453 109.147 47.4102C108.667 47.0675 108.302 46.6287 108.053 46.094C107.805 45.5509 107.711 44.9495 107.772 44.2899C107.833 43.6218 108.035 43.0478 108.378 42.5677C108.721 42.0876 109.159 41.7271 109.693 41.4864C110.227 41.2457 110.82 41.1553 111.471 41.2154C112.13 41.2762 112.701 41.4738 113.182 41.8081C113.671 42.1432 114.036 42.5777 114.277 43.1116C114.526 43.6462 114.62 44.2476 114.558 44.9157C114.497 45.5753 114.295 46.1494 113.952 46.6379C113.617 47.1188 113.178 47.4835 112.635 47.7319C112.093 47.9718 111.496 48.0618 110.845 48.0018ZM110.919 47.2026C111.401 47.2471 111.838 47.1807 112.229 47.0036C112.622 46.8181 112.941 46.5405 113.189 46.171C113.445 45.7938 113.597 45.3473 113.645 44.8315C113.693 44.3072 113.625 43.8404 113.441 43.4311C113.266 43.0226 113.002 42.6955 112.649 42.4498C112.297 42.1956 111.885 42.0467 111.411 42.003C110.937 41.9593 110.504 42.0303 110.112 42.2158C109.721 42.3929 109.397 42.6659 109.141 43.0346C108.885 43.4033 108.733 43.8498 108.685 44.3741C108.637 44.89 108.705 45.3568 108.888 45.7745C109.072 46.1838 109.34 46.5155 109.692 46.7697C110.045 47.0154 110.454 47.1597 110.919 47.2026ZM116.089 48.4214L116.703 41.7618L117.566 41.8414L117.399 43.6553L117.339 43.33C117.572 42.8397 117.92 42.4838 118.384 42.2622C118.849 42.0322 119.407 41.9471 120.058 42.0072L119.977 42.8824C119.943 42.8793 119.91 42.8762 119.876 42.8731C119.843 42.8615 119.809 42.8542 119.775 42.851C119.074 42.7863 118.504 42.9513 118.067 43.3459C117.63 43.7321 117.376 44.3184 117.303 45.1049L116.99 48.5044L116.089 48.4214ZM123.739 49.1268L123.799 48.4798L127.824 45.205C128.192 44.9064 128.472 44.6423 128.664 44.4127C128.857 44.1746 128.993 43.9483 129.072 43.7339C129.152 43.5195 129.2 43.315 129.218 43.1205C129.266 42.6047 129.126 42.1824 128.798 41.8536C128.478 41.5257 127.976 41.3301 127.291 41.267C126.767 41.2186 126.294 41.2561 125.874 41.3793C125.461 41.5033 125.096 41.7212 124.777 42.033L124.182 41.4152C124.566 41.0413 125.039 40.7693 125.6 40.5993C126.162 40.4294 126.776 40.3752 127.444 40.4368C128.045 40.4922 128.556 40.6374 128.978 40.8724C129.4 41.099 129.713 41.405 129.917 41.7905C130.128 42.1768 130.212 42.6151 130.166 43.1056C130.14 43.3931 130.071 43.6725 129.961 43.9438C129.859 44.2158 129.688 44.4986 129.448 44.792C129.217 45.0777 128.885 45.3967 128.451 45.7491L124.758 48.7602L124.537 48.3816L130.042 48.8893L129.967 49.7011L123.739 49.1268ZM130.949 49.7916L131.008 49.1446L135.033 45.8698C135.402 45.5712 135.682 45.3071 135.874 45.0775C136.066 44.8394 136.202 44.6131 136.282 44.3987C136.361 44.1843 136.41 43.9798 136.428 43.7853C136.475 43.2695 136.335 42.8472 136.007 42.5184C135.688 42.1905 135.186 41.9949 134.501 41.9318C133.976 41.8834 133.504 41.9209 133.083 42.0441C132.671 42.1681 132.305 42.386 131.987 42.6978L131.391 42.08C131.775 41.7061 132.248 41.4341 132.81 41.2641C133.371 41.0942 133.986 41.04 134.654 41.1016C135.254 41.157 135.766 41.3022 136.187 41.5372C136.61 41.7638 136.923 42.0698 137.126 42.4553C137.338 42.8416 137.421 43.2799 137.376 43.7704C137.349 44.0579 137.281 44.3373 137.171 44.6086C137.069 44.8806 136.898 45.1634 136.657 45.4568C136.426 45.7425 136.094 46.0615 135.661 46.4139L131.968 49.425L131.747 49.0464L137.252 49.5541L137.177 50.3659L130.949 49.7916ZM139.126 50.6096C138.94 50.5924 138.786 50.51 138.663 50.3622C138.549 50.2152 138.5 50.0444 138.518 49.8499C138.537 49.647 138.616 49.4879 138.754 49.3728C138.901 49.2584 139.068 49.2098 139.254 49.2269C139.44 49.2441 139.59 49.3219 139.706 49.4605C139.829 49.5998 139.882 49.771 139.863 49.9739C139.845 50.1684 139.762 50.3271 139.614 50.4499C139.475 50.5735 139.312 50.6267 139.126 50.6096ZM144.531 51.1208C143.846 51.0576 143.254 50.8239 142.753 50.4196C142.254 50.0068 141.883 49.4524 141.64 48.7562C141.398 48.0516 141.321 47.2257 141.408 46.2786C141.496 45.3315 141.722 44.5379 142.088 43.8979C142.455 43.2495 142.921 42.7722 143.487 42.4662C144.053 42.1517 144.679 42.026 145.364 42.0892C146.049 42.1523 146.641 42.3903 147.14 42.803C147.64 43.2073 148.011 43.7618 148.253 44.4664C148.505 45.1633 148.586 45.9853 148.499 46.9325C148.412 47.8796 148.181 48.677 147.805 49.3247C147.439 49.9647 146.973 50.4419 146.407 50.7564C145.841 51.0625 145.216 51.1839 144.531 51.1208ZM144.608 50.2836C145.132 50.3319 145.602 50.2345 146.017 49.9913C146.432 49.7396 146.775 49.3533 147.045 48.8324C147.315 48.303 147.487 47.6408 147.56 46.8459C147.634 46.051 147.585 45.3728 147.415 44.8113C147.246 44.2413 146.98 43.7989 146.617 43.484C146.254 43.1606 145.811 42.9747 145.287 42.9264C144.779 42.8796 144.314 42.9816 143.89 43.2325C143.466 43.4749 143.119 43.8608 142.849 44.3902C142.579 44.9112 142.408 45.5691 142.334 46.364C142.261 47.1589 142.309 47.8414 142.478 48.4113C142.648 48.9728 142.919 49.4156 143.29 49.7398C143.661 50.0555 144.101 50.2368 144.608 50.2836ZM151.918 51.8019C151.275 51.7427 150.676 51.585 150.119 51.329C149.572 51.0654 149.141 50.7442 148.827 50.3655L149.337 49.6834C149.597 50.0059 149.96 50.2866 150.424 50.5256C150.896 50.7653 151.42 50.9117 151.995 50.9647C152.731 51.0326 153.308 50.9237 153.727 50.6383C154.154 50.3536 154.392 49.9406 154.442 49.3994C154.492 48.8582 154.337 48.4089 153.978 48.0517C153.627 47.6953 153.037 47.4789 152.208 47.4024L151.574 47.344L151.636 46.6717L154.693 43.4867L154.787 43.8536L149.84 43.3974L149.915 42.5856L155.623 43.1119L155.564 43.7589L152.507 46.9438L152.09 46.6111L152.432 46.6427C153.498 46.7409 154.271 47.051 154.751 47.5729C155.24 48.0956 155.451 48.7291 155.382 49.4733C155.336 49.9722 155.176 50.4095 154.903 50.7851C154.629 51.1607 154.241 51.4405 153.738 51.6244C153.243 51.809 152.637 51.8682 151.918 51.8019ZM157.113 52.2682C156.927 52.251 156.772 52.1685 156.65 52.0208C156.535 51.8738 156.487 51.703 156.505 51.5085C156.524 51.3055 156.602 51.1465 156.741 51.0313C156.888 50.917 157.054 50.8684 157.24 50.8855C157.426 50.9027 157.577 50.9805 157.692 51.1191C157.816 51.2584 157.868 51.4295 157.85 51.6325C157.832 51.827 157.749 51.9857 157.601 52.1085C157.462 52.2321 157.299 52.2853 157.113 52.2682ZM159.081 52.3857L159.141 51.7387L163.165 48.4639C163.534 48.1653 163.814 47.9012 164.006 47.6715C164.198 47.4334 164.334 47.2072 164.414 46.9928C164.493 46.7784 164.542 46.5739 164.56 46.3794C164.607 45.8636 164.467 45.4413 164.139 45.1125C163.82 44.7846 163.318 44.589 162.633 44.5259C162.109 44.4775 161.636 44.515 161.215 44.6382C160.803 44.7622 160.438 44.9801 160.119 45.2919L159.523 44.6741C159.907 44.3001 160.38 44.0282 160.942 43.8582C161.503 43.6883 162.118 43.6341 162.786 43.6957C163.387 43.751 163.898 43.8963 164.319 44.1313C164.742 44.3579 165.055 44.6639 165.258 45.0494C165.47 45.4356 165.553 45.874 165.508 46.3645C165.481 46.652 165.413 46.9314 165.303 47.2027C165.201 47.4747 165.03 47.7574 164.79 48.0508C164.559 48.3366 164.226 48.6556 163.793 49.008L160.1 52.0191L159.879 51.6405L165.384 52.1481L165.309 52.96L159.081 52.3857ZM166.233 50.6914L166.294 50.0317L171.543 44.5799L172.558 44.6735L167.347 50.1288L166.866 49.931L174.008 50.5895L173.933 51.4013L166.233 50.6914ZM171.029 53.4874L171.244 51.1534L171.344 50.3439L171.534 48.2889L172.422 48.3708L171.942 53.5716L171.029 53.4874Z" fill="#949494"/>
<circle cx="72.2925" cy="78.3151" r="4.24622" transform="rotate(5.2684 72.2925 78.3151)" fill="#D9D9D9"/>
<path d="M92.1583 88.6282L87.526 74.7688L89.581 74.9583L93.8323 87.7464L92.6526 87.6376L99.2088 75.846L101.112 76.0215L94.042 88.8019L92.1583 88.6282ZM101.315 89.4726L102.245 79.3882L104.072 79.5566L103.142 89.6411L101.315 89.4726ZM103.338 77.5316C102.982 77.4989 102.695 77.3572 102.475 77.1067C102.268 76.8573 102.179 76.5677 102.21 76.2379C102.241 75.8954 102.382 75.6205 102.631 75.4132C102.893 75.2071 103.202 75.1205 103.557 75.1532C103.912 75.186 104.193 75.327 104.401 75.5764C104.622 75.8143 104.717 76.0981 104.687 76.4279C104.655 76.7704 104.514 77.0516 104.263 77.2716C104.014 77.4789 103.705 77.5655 103.338 77.5316ZM109.511 90.3435C108.674 90.2663 107.886 90.0785 107.145 89.78C106.418 89.4826 105.854 89.1492 105.453 88.7796L106.348 87.4037C106.752 87.7352 107.262 88.0317 107.877 88.2931C108.493 88.5546 109.131 88.7157 109.79 88.7765C110.64 88.8549 111.26 88.7905 111.65 88.5835C112.053 88.3775 112.274 88.0589 112.314 87.6276C112.343 87.3105 112.252 87.0526 112.04 86.854C111.828 86.6554 111.536 86.4941 111.163 86.3702C110.804 86.2475 110.398 86.1334 109.948 86.0278C109.498 85.9096 109.05 85.7787 108.602 85.6351C108.156 85.4789 107.752 85.288 107.389 85.0627C107.027 84.8246 106.747 84.5238 106.551 84.1603C106.355 83.7841 106.284 83.3042 106.338 82.7207C106.394 82.1118 106.615 81.5948 106.999 81.1698C107.384 80.7447 107.898 80.4403 108.542 80.2566C109.199 80.0614 109.959 80.0036 110.822 80.0831C111.482 80.1439 112.14 80.2878 112.797 80.5147C113.468 80.7301 114.006 81.0035 114.41 81.335L113.497 82.7092C113.068 82.3626 112.612 82.1095 112.127 81.9497C111.643 81.7899 111.154 81.6872 110.659 81.6416C109.86 81.5679 109.252 81.6461 108.834 81.8762C108.417 82.0937 108.19 82.4053 108.153 82.8113C108.121 83.1538 108.211 83.4307 108.421 83.642C108.646 83.8418 108.938 84.0094 109.296 84.1448C109.667 84.2814 110.078 84.4088 110.527 84.527C110.978 84.6325 111.427 84.7634 111.873 84.9197C112.32 85.0633 112.719 85.2472 113.069 85.4714C113.432 85.6967 113.712 85.9912 113.909 86.3547C114.118 86.7194 114.197 87.1872 114.144 87.758C114.088 88.3669 113.862 88.8769 113.466 89.2882C113.07 89.6994 112.536 90.002 111.866 90.1961C111.197 90.3774 110.412 90.4266 109.511 90.3435ZM120.394 91.3471C119.532 91.2675 118.785 91.0388 118.155 90.6608C117.537 90.2841 117.074 89.7553 116.766 89.0744C116.472 88.382 116.37 87.5412 116.462 86.5517L116.997 80.7484L118.823 80.9169L118.307 86.5109C118.216 87.5003 118.382 88.264 118.806 88.802C119.243 89.3411 119.892 89.6505 120.755 89.73C121.389 89.7885 121.952 89.7125 122.445 89.5021C122.939 89.279 123.336 88.9318 123.635 88.4605C123.935 87.9765 124.118 87.3793 124.184 86.669L124.665 81.4555L126.491 81.6239L125.561 91.7084L123.83 91.5487L124.081 88.8278L124.3 89.5772C123.908 90.2191 123.365 90.6935 122.672 91.0006C121.978 91.3076 121.219 91.4231 120.394 91.3471ZM135.299 92.6063L135.495 90.4752L135.437 90.0669L135.772 86.4327C135.843 85.6589 135.67 85.0416 135.252 84.5809C134.848 84.1087 134.195 83.8311 133.295 83.748C132.699 83.6931 132.106 83.7407 131.516 83.8911C130.928 84.0287 130.422 84.2443 129.998 84.5378L129.363 83.0977C129.922 82.727 130.573 82.4672 131.316 82.3183C132.073 82.1578 132.851 82.1144 133.65 82.1881C135.032 82.3156 136.067 82.75 136.753 83.4913C137.44 84.2326 137.719 85.2946 137.592 86.6772L137.03 92.7659L135.299 92.6063ZM131.977 92.4151C131.229 92.3461 130.581 92.1585 130.034 91.8521C129.499 91.547 129.1 91.1584 128.836 90.6863C128.574 90.2016 128.469 89.6738 128.522 89.103C128.572 88.5576 128.745 88.0745 129.039 87.654C129.347 87.2346 129.804 86.9186 130.412 86.706C131.033 86.4946 131.844 86.4351 132.847 86.5275L136.043 86.8223L135.922 88.1351L132.802 87.8474C131.888 87.7632 131.259 87.8587 130.914 88.1339C130.569 88.4091 130.376 88.7623 130.336 89.1936C130.291 89.6883 130.451 90.106 130.816 90.4467C131.182 90.7747 131.714 90.9709 132.412 91.0352C133.097 91.0984 133.707 91.0011 134.242 90.7435C134.791 90.487 135.206 90.0775 135.488 89.5151L135.734 90.8042C135.438 91.3782 134.969 91.8147 134.327 92.1137C133.687 92.4001 132.903 92.5005 131.977 92.4151ZM140.411 93.0776L141.712 78.9594L143.539 79.1278L142.237 93.2461L140.411 93.0776ZM151.101 94.0634L152.329 80.7443L154.232 80.9198L153.156 92.5835L160.368 93.2485L160.215 94.9038L151.101 94.0634ZM166.482 95.5968C165.404 95.4974 164.473 95.1877 163.689 94.6677C162.918 94.1489 162.34 93.4815 161.955 92.6656C161.582 91.8509 161.442 90.9425 161.535 89.9404C161.627 88.9383 161.925 88.0703 162.427 87.3362C162.943 86.6034 163.601 86.0564 164.401 85.6953C165.216 85.3227 166.106 85.1809 167.07 85.2698C168.046 85.3598 168.889 85.655 169.598 86.1553C170.306 86.6556 170.834 87.3183 171.18 88.1433C171.54 88.9569 171.672 89.8837 171.576 90.9239C171.569 91 171.554 91.0882 171.532 91.1885C171.523 91.29 171.508 91.3845 171.487 91.4722L162.906 90.6809L163.027 89.368L170.657 90.0716L169.872 90.4598C169.945 89.814 169.865 89.2246 169.632 88.6915C169.4 88.1583 169.05 87.7294 168.581 87.4047C168.125 87.0685 167.574 86.8706 166.927 86.811C166.293 86.7525 165.715 86.8463 165.194 87.0924C164.673 87.3259 164.25 87.6898 163.923 88.1841C163.597 88.6658 163.403 89.2364 163.342 89.896L163.314 90.2005C163.252 90.8728 163.349 91.4893 163.604 92.0502C163.874 92.5995 164.274 93.0458 164.805 93.389C165.336 93.7322 165.963 93.9371 166.686 94.0038C167.283 94.0588 167.831 94.007 168.332 93.8485C168.845 93.6912 169.305 93.4265 169.71 93.0545L170.61 94.3272C170.104 94.8178 169.495 95.1711 168.785 95.387C168.087 95.6041 167.319 95.674 166.482 95.5968ZM179.634 96.6944L179.83 94.5634L179.772 94.155L180.107 90.5208C180.178 89.7471 180.005 89.1298 179.587 88.6691C179.183 88.1969 178.53 87.9193 177.63 87.8362C177.034 87.7812 176.441 87.8289 175.851 87.9792C175.263 88.1169 174.757 88.3325 174.333 88.626L173.698 87.1859C174.257 86.8152 174.908 86.5554 175.651 86.4064C176.408 86.246 177.186 86.2026 177.985 86.2762C179.367 86.4037 180.402 86.8381 181.088 87.5794C181.775 88.3208 182.054 89.3827 181.927 90.7654L181.365 96.8541L179.634 96.6944ZM176.312 96.5033C175.564 96.4343 174.916 96.2466 174.369 95.9403C173.834 95.6351 173.435 95.2465 173.171 94.7745C172.909 94.2898 172.804 93.762 172.857 93.1912C172.907 92.6457 173.08 92.1627 173.374 91.7421C173.682 91.3227 174.139 91.0067 174.747 90.7942C175.368 90.5828 176.179 90.5233 177.182 90.6157L180.378 90.9104L180.257 92.2233L177.137 91.9356C176.223 91.8514 175.594 91.9468 175.249 92.222C174.904 92.4972 174.711 92.8505 174.671 93.2818C174.626 93.7765 174.786 94.1942 175.151 94.5349C175.517 94.8629 176.049 95.059 176.747 95.1234C177.432 95.1865 178.042 95.0893 178.577 94.8316C179.126 94.5752 179.541 94.1657 179.823 93.6033L180.069 94.8924C179.773 95.4664 179.304 95.9029 178.662 96.2019C178.022 96.4882 177.238 96.5887 176.312 96.5033ZM184.746 97.1658L185.675 87.0814L187.426 87.2428L187.173 89.9827L187.065 89.2819C187.409 88.61 187.927 88.1205 188.621 87.8135C189.314 87.5064 190.143 87.3974 191.107 87.4863L190.944 89.2558C190.869 89.2361 190.793 89.2227 190.717 89.2157C190.654 89.2099 190.59 89.204 190.527 89.1982C189.55 89.1081 188.75 89.3285 188.125 89.8594C187.5 90.3902 187.137 91.2075 187.035 92.311L186.572 97.3342L184.746 97.1658ZM198.743 88.1904C199.568 88.2664 200.276 88.4916 200.868 88.8661C201.473 89.2417 201.924 89.7693 202.219 90.449C202.515 91.1287 202.617 91.9632 202.525 92.9527L201.99 98.756L200.164 98.5875L200.68 92.9935C200.77 92.0168 200.596 91.2588 200.16 90.7197C199.736 90.1817 199.093 89.8729 198.231 89.7934C197.584 89.7337 197.008 89.8085 196.502 90.0178C195.997 90.227 195.588 90.5667 195.276 91.0369C194.977 91.5082 194.793 92.1117 194.725 92.8474L194.246 98.0419L192.42 97.8734L193.35 87.789L195.1 87.9504L194.849 90.6713L194.63 89.922C195.021 89.2928 195.576 88.8258 196.295 88.5211C197.014 88.2164 197.83 88.1062 198.743 88.1904ZM209.851 99.5959C208.772 99.4965 207.842 99.1868 207.058 98.6668C206.287 98.148 205.709 97.4806 205.324 96.6647C204.951 95.85 204.811 94.9416 204.903 93.9395C204.996 92.9374 205.293 92.0693 205.796 91.3353C206.311 90.6025 206.969 90.0555 207.77 89.6944C208.585 89.3218 209.474 89.1799 210.438 89.2688C211.415 89.3589 212.258 89.6541 212.966 90.1544C213.675 90.6547 214.202 91.3173 214.549 92.1424C214.908 92.9559 215.04 93.8828 214.945 94.923C214.938 94.9991 214.923 95.0873 214.901 95.1876C214.892 95.2891 214.876 95.3836 214.856 95.4712L206.274 94.6799L206.395 93.3671L214.025 94.0706L213.241 94.4589C213.313 93.8131 213.234 93.2237 213.001 92.6905C212.769 92.1574 212.418 91.7285 211.949 91.4038C211.494 91.0676 210.943 90.8697 210.296 90.81C209.662 90.7516 209.084 90.8454 208.562 91.0915C208.042 91.325 207.618 91.6889 207.291 92.1832C206.965 92.6649 206.772 93.2355 206.711 93.8951L206.683 94.1995C206.621 94.8718 206.718 95.4884 206.973 96.0492C207.242 96.5986 207.643 97.0448 208.174 97.3881C208.705 97.7313 209.332 97.9362 210.055 98.0029C210.651 98.0579 211.2 98.0061 211.701 97.8476C212.214 97.6902 212.673 97.4256 213.079 97.0536L213.978 98.3263C213.473 98.8169 212.864 99.1702 212.154 99.3861C211.456 99.6032 210.688 99.6731 209.851 99.5959ZM217.021 100.142L217.951 90.0575L219.702 90.219L219.449 92.9589L219.341 92.2581C219.684 91.5862 220.203 91.0967 220.896 90.7896C221.59 90.4826 222.419 90.3735 223.383 90.4624L223.22 92.232C223.145 92.2123 223.069 92.1989 222.993 92.1919C222.93 92.186 222.866 92.1802 222.803 92.1743C221.826 92.0843 221.025 92.3047 220.401 92.8355C219.776 93.3664 219.413 94.1836 219.311 95.2872L218.848 100.31L217.021 100.142ZM88.8477 111.421L89.9232 99.7568L85.3566 99.3357L85.5093 97.6804L96.5261 98.6962L96.3734 100.352L91.8069 99.9305L90.7314 111.594L88.8477 111.421ZM100.543 112.614C99.465 112.515 98.5341 112.205 97.7505 111.685C96.9796 111.166 96.4016 110.499 96.0162 109.683C95.6436 108.868 95.5035 107.96 95.5959 106.958C95.6883 105.956 95.9859 105.088 96.4885 104.354C97.0038 103.621 97.6619 103.074 98.4628 102.713C99.2775 102.34 100.167 102.198 101.131 102.287C102.108 102.377 102.95 102.672 103.659 103.173C104.368 103.673 104.895 104.336 105.241 105.161C105.601 105.974 105.733 106.901 105.637 107.941C105.63 108.017 105.616 108.105 105.593 108.206C105.584 108.307 105.569 108.402 105.548 108.489L96.9668 107.698L97.0879 106.385L104.718 107.089L103.934 107.477C104.006 106.831 103.926 106.242 103.694 105.709C103.461 105.176 103.111 104.747 102.642 104.422C102.187 104.086 101.636 103.888 100.989 103.828C100.355 103.77 99.7766 103.864 99.255 104.11C98.7346 104.343 98.3108 104.707 97.9838 105.201C97.658 105.683 97.4646 106.254 97.4038 106.913L97.3757 107.218C97.3137 107.89 97.4104 108.507 97.6657 109.067C97.9349 109.617 98.3351 110.063 98.8663 110.406C99.3975 110.749 100.025 110.954 100.748 111.021C101.344 111.076 101.892 111.024 102.393 110.866C102.906 110.708 103.366 110.444 103.771 110.072L104.671 111.344C104.165 111.835 103.557 112.188 102.846 112.404C102.148 112.621 101.38 112.691 100.543 112.614ZM112.099 113.68C111.071 113.585 110.172 113.278 109.401 112.759C108.643 112.242 108.071 111.575 107.686 110.759C107.3 109.943 107.154 109.034 107.246 108.032C107.339 107.03 107.649 106.163 108.177 105.431C108.705 104.7 109.388 104.155 110.227 103.797C111.08 103.428 112.02 103.291 113.048 103.386C113.961 103.47 114.756 103.729 115.432 104.162C116.123 104.584 116.632 105.168 116.959 105.915L115.488 106.681C115.204 106.156 114.831 105.757 114.37 105.484C113.923 105.2 113.427 105.033 112.881 104.982C112.222 104.922 111.618 105.013 111.071 105.257C110.524 105.501 110.074 105.875 109.721 106.38C109.368 106.872 109.159 107.479 109.092 108.202C109.025 108.925 109.12 109.567 109.375 110.128C109.63 110.689 110.005 111.139 110.498 111.479C110.991 111.819 111.567 112.019 112.227 112.08C112.772 112.13 113.29 112.063 113.781 111.877C114.285 111.681 114.725 111.351 115.1 110.886L116.408 111.89C115.951 112.551 115.343 113.039 114.585 113.352C113.841 113.655 113.012 113.764 112.099 113.68ZM124.777 104.467C125.602 104.544 126.31 104.769 126.902 105.143C127.507 105.519 127.958 106.046 128.253 106.726C128.549 107.406 128.651 108.24 128.56 109.23L128.025 115.033L126.198 114.865L126.714 109.271C126.804 108.294 126.631 107.536 126.194 106.997C125.77 106.459 125.127 106.15 124.265 106.071C123.618 106.011 123.042 106.086 122.536 106.295C122.031 106.504 121.622 106.844 121.31 107.314C121.011 107.785 120.827 108.389 120.759 109.125L120.28 114.319L118.454 114.151L119.756 100.032L121.582 100.201L120.959 106.955L120.665 106.199C121.055 105.57 121.61 105.103 122.329 104.798C123.048 104.494 123.864 104.383 124.777 104.467ZM137.728 105.662C138.553 105.738 139.261 105.963 139.854 106.337C140.459 106.713 140.909 107.241 141.204 107.92C141.5 108.6 141.602 109.435 141.511 110.424L140.976 116.227L139.149 116.059L139.665 110.465C139.755 109.488 139.582 108.73 139.145 108.191C138.722 107.653 138.079 107.344 137.216 107.265C136.569 107.205 135.993 107.28 135.487 107.489C134.982 107.698 134.573 108.038 134.261 108.508C133.962 108.98 133.778 109.583 133.711 110.319L133.232 115.513L131.405 115.345L132.335 105.26L134.085 105.422L133.834 108.143L133.616 107.393C134.006 106.764 134.561 106.297 135.28 105.992C135.999 105.688 136.815 105.578 137.728 105.662ZM144.356 116.539L145.286 106.455L147.113 106.623L146.183 116.707L144.356 116.539ZM146.378 104.598C146.023 104.565 145.736 104.424 145.516 104.173C145.308 103.924 145.22 103.634 145.25 103.304C145.282 102.962 145.422 102.687 145.672 102.48C145.934 102.274 146.242 102.187 146.598 102.22C146.953 102.252 147.234 102.393 147.441 102.643C147.662 102.881 147.758 103.165 147.727 103.494C147.696 103.837 147.555 104.118 147.304 104.338C147.055 104.545 146.746 104.632 146.378 104.598ZM153.827 117.527C152.85 117.437 151.995 117.141 151.261 116.638C150.539 116.137 149.992 115.479 149.62 114.664C149.247 113.849 149.108 112.928 149.203 111.901C149.298 110.873 149.602 110 150.116 109.279C150.632 108.547 151.29 108 152.091 107.639C152.904 107.279 153.799 107.144 154.776 107.234C155.651 107.314 156.414 107.577 157.064 108.02C157.714 108.464 158.2 109.085 158.523 109.882C158.859 110.68 158.974 111.651 158.869 112.792C158.764 113.934 158.467 114.866 157.978 115.588C157.502 116.312 156.903 116.839 156.182 117.169C155.462 117.486 154.677 117.606 153.827 117.527ZM154.126 115.943C154.761 116.002 155.345 115.908 155.879 115.664C156.426 115.42 156.87 115.045 157.211 114.539C157.566 114.022 157.776 113.408 157.841 112.697C157.908 111.974 157.813 111.339 157.557 110.791C157.314 110.231 156.946 109.781 156.453 109.442C155.972 109.103 155.415 108.905 154.781 108.846C154.134 108.786 153.543 108.879 153.009 109.124C152.475 109.369 152.031 109.744 151.677 110.248C151.325 110.741 151.115 111.348 151.049 112.071C150.983 112.781 151.077 113.423 151.332 113.997C151.587 114.558 151.955 115.007 152.435 115.346C152.916 115.684 153.48 115.884 154.126 115.943ZM157.017 121.429L157.605 115.055L158.011 112.732L158.113 110.381L158.363 107.66L160.114 107.822L158.844 121.598L157.017 121.429ZM166.873 118.73C166.01 118.651 165.264 118.422 164.633 118.044C164.016 117.667 163.553 117.139 163.244 116.458C162.95 115.765 162.849 114.925 162.94 113.935L163.475 108.132L165.302 108.3L164.786 113.894C164.694 114.884 164.861 115.647 165.284 116.185C165.721 116.725 166.37 117.034 167.233 117.113C167.867 117.172 168.431 117.096 168.923 116.885C169.417 116.662 169.814 116.315 170.113 115.844C170.414 115.36 170.597 114.763 170.662 114.052L171.143 108.839L172.97 109.007L172.04 119.092L170.308 118.932L170.559 116.211L170.778 116.961C170.386 117.602 169.843 118.077 169.15 118.384C168.456 118.691 167.697 118.806 166.873 118.73ZM179.997 119.941C178.919 119.841 177.988 119.532 177.204 119.012C176.433 118.493 175.855 117.825 175.47 117.009C175.097 116.195 174.957 115.286 175.05 114.284C175.142 113.282 175.44 112.414 175.942 111.68C176.457 110.947 177.116 110.4 177.916 110.039C178.731 109.667 179.621 109.525 180.585 109.614C181.561 109.704 182.404 109.999 183.113 110.499C183.821 110.999 184.349 111.662 184.695 112.487C185.055 113.301 185.187 114.228 185.091 115.268C185.084 115.344 185.069 115.432 185.047 115.532C185.038 115.634 185.023 115.728 185.002 115.816L176.421 115.025L176.542 113.712L184.172 114.415L183.387 114.804C183.46 114.158 183.38 113.568 183.147 113.035C182.915 112.502 182.565 112.073 182.096 111.749C181.64 111.412 181.089 111.214 180.442 111.155C179.808 111.096 179.23 111.19 178.709 111.436C178.188 111.67 177.765 112.034 177.437 112.528C177.112 113.01 176.918 113.58 176.857 114.24L176.829 114.544C176.767 115.217 176.864 115.833 177.119 116.394C177.389 116.943 177.789 117.39 178.32 117.733C178.851 118.076 179.478 118.281 180.201 118.348C180.798 118.403 181.346 118.351 181.847 118.192C182.36 118.035 182.82 117.77 183.225 117.398L184.124 118.671C183.619 119.162 183.01 119.515 182.3 119.731C181.602 119.948 180.834 120.018 179.997 119.941ZM190.049 120.868C189.212 120.79 188.423 120.603 187.683 120.304C186.956 120.007 186.392 119.673 185.991 119.304L186.885 117.928C187.29 118.259 187.8 118.556 188.415 118.817C189.031 119.079 189.668 119.24 190.328 119.301C191.178 119.379 191.798 119.315 192.188 119.107C192.591 118.902 192.812 118.583 192.852 118.152C192.881 117.835 192.79 117.577 192.578 117.378C192.366 117.179 192.074 117.018 191.701 116.894C191.341 116.772 190.936 116.657 190.485 116.552C190.036 116.434 189.587 116.303 189.14 116.159C188.694 116.003 188.289 115.812 187.926 115.587C187.565 115.349 187.285 115.048 187.088 114.684C186.893 114.308 186.822 113.828 186.876 113.245C186.932 112.636 187.152 112.119 187.537 111.694C187.922 111.269 188.436 110.964 189.08 110.781C189.737 110.585 190.497 110.528 191.36 110.607C192.019 110.668 192.678 110.812 193.335 111.039C194.006 111.254 194.543 111.528 194.948 111.859L194.034 113.233C193.606 112.887 193.149 112.634 192.665 112.474C192.181 112.314 191.692 112.211 191.197 112.166C190.398 112.092 189.789 112.17 189.372 112.4C188.955 112.618 188.728 112.929 188.69 113.335C188.659 113.678 188.748 113.955 188.959 114.166C189.184 114.366 189.475 114.533 189.834 114.669C190.205 114.805 190.616 114.933 191.065 115.051C191.516 115.157 191.964 115.287 192.411 115.444C192.858 115.587 193.257 115.771 193.607 115.995C193.97 116.221 194.25 116.515 194.447 116.879C194.656 117.243 194.734 117.711 194.682 118.282C194.626 118.891 194.4 119.401 194.003 119.812C193.607 120.223 193.074 120.526 192.404 120.72C191.735 120.901 190.95 120.951 190.049 120.868Z" fill="#2E2D2D"/>
<path d="M85.7604 144.602L82.8606 132.394L84.146 132.513L86.856 144.003L86.2133 143.944L91.0973 133.154L92.2474 133.26L95.0251 144.757L94.4162 144.7L99.2156 133.902L100.416 134.013L95.3332 145.484L94.014 145.363L91.3524 134.457L91.6907 134.488L87.0627 144.722L85.7604 144.602ZM101.019 146.009L101.838 137.129L102.988 137.235L102.765 139.654L102.685 139.22C102.996 138.566 103.46 138.092 104.079 137.796C104.698 137.49 105.442 137.376 106.311 137.456L106.203 138.623C106.158 138.619 106.113 138.615 106.068 138.611C106.024 138.595 105.979 138.586 105.934 138.582C104.998 138.495 104.239 138.715 103.656 139.241C103.074 139.756 102.734 140.538 102.638 141.587L102.22 146.119L101.019 146.009ZM107.675 146.622L108.494 137.743L109.695 137.854L108.876 146.733L107.675 146.622ZM109.284 135.837C109.036 135.814 108.835 135.711 108.681 135.526C108.528 135.341 108.462 135.13 108.484 134.894C108.506 134.657 108.608 134.467 108.792 134.325C108.977 134.171 109.193 134.106 109.441 134.129C109.689 134.152 109.891 134.25 110.045 134.424C110.2 134.597 110.266 134.802 110.244 135.039C110.221 135.287 110.118 135.488 109.933 135.641C109.759 135.796 109.543 135.861 109.284 135.837ZM115.017 147.385C114.183 147.308 113.561 147.023 113.151 146.53C112.742 146.038 112.575 145.38 112.651 144.557L113.42 136.219L114.621 136.329L113.858 144.6C113.81 145.119 113.903 145.531 114.136 145.837C114.381 146.143 114.751 146.32 115.247 146.365C115.777 146.414 116.231 146.303 116.609 146.03L116.952 146.932C116.696 147.124 116.393 147.256 116.046 147.326C115.71 147.397 115.367 147.417 115.017 147.385ZM111.557 139.032L111.649 138.034L117.146 138.541L117.054 139.539L111.557 139.032ZM122.538 148.078C121.614 147.993 120.82 147.726 120.156 147.279C119.493 146.82 118.996 146.233 118.663 145.521C118.332 144.796 118.207 143.995 118.288 143.115C118.369 142.236 118.627 141.475 119.062 140.833C119.507 140.191 120.075 139.709 120.764 139.386C121.466 139.053 122.228 138.924 123.051 139C123.886 139.077 124.607 139.337 125.214 139.779C125.834 140.212 126.298 140.789 126.606 141.511C126.916 142.222 127.03 143.023 126.948 143.914C126.943 143.97 126.931 144.031 126.914 144.098C126.908 144.154 126.903 144.216 126.896 144.284L119.167 143.571L119.25 142.675L126.336 143.328L125.83 143.64C125.889 142.997 125.801 142.415 125.565 141.893C125.341 141.36 125.005 140.931 124.558 140.606C124.11 140.28 123.576 140.089 122.956 140.032C122.347 139.976 121.787 140.066 121.277 140.303C120.766 140.541 120.352 140.9 120.034 141.383C119.717 141.865 119.528 142.433 119.468 143.087L119.451 143.273C119.388 143.95 119.48 144.561 119.725 145.107C119.983 145.642 120.363 146.081 120.866 146.423C121.381 146.755 121.983 146.952 122.67 147.016C123.212 147.066 123.722 147.016 124.202 146.867C124.693 146.719 125.126 146.463 125.501 146.1L126.106 146.94C125.667 147.377 125.138 147.693 124.518 147.885C123.908 148.079 123.249 148.144 122.538 148.078ZM138.973 149.508L139.154 147.546L139.132 147.22L139.435 143.939C139.505 143.184 139.344 142.583 138.953 142.138C138.573 141.694 137.966 141.433 137.132 141.356C136.557 141.303 136.001 141.348 135.465 141.492C134.928 141.636 134.465 141.849 134.075 142.132L133.617 141.185C134.103 140.844 134.671 140.6 135.321 140.456C135.973 140.3 136.648 140.254 137.347 140.318C138.497 140.424 139.356 140.793 139.923 141.426C140.502 142.048 140.738 142.939 140.631 144.101L140.123 149.614L138.973 149.508ZM135.904 149.311C135.238 149.249 134.668 149.089 134.191 148.829C133.727 148.558 133.383 148.22 133.159 147.812C132.936 147.394 132.848 146.931 132.895 146.424C132.937 145.961 133.083 145.554 133.332 145.202C133.592 144.839 133.981 144.568 134.498 144.388C135.028 144.198 135.715 144.142 136.561 144.22L139.622 144.502L139.539 145.399L136.512 145.12C135.655 145.041 135.043 145.138 134.677 145.411C134.322 145.685 134.123 146.048 134.082 146.499C134.035 147.006 134.195 147.43 134.562 147.771C134.928 148.112 135.467 148.315 136.177 148.381C136.853 148.443 137.448 148.344 137.961 148.085C138.486 147.815 138.889 147.397 139.168 146.831L139.363 147.685C139.083 148.251 138.645 148.682 138.049 148.98C137.464 149.278 136.749 149.389 135.904 149.311ZM153.17 141.777C153.892 141.844 154.51 142.043 155.025 142.375C155.553 142.696 155.943 143.153 156.195 143.745C156.459 144.338 156.551 145.063 156.472 145.92L155.997 151.078L154.796 150.967L155.261 145.927C155.347 144.991 155.175 144.265 154.745 143.748C154.328 143.22 153.696 142.918 152.85 142.84C152.219 142.781 151.655 142.86 151.157 143.076C150.672 143.281 150.277 143.614 149.973 144.075C149.682 144.526 149.504 145.09 149.442 145.766L149.012 150.434L147.811 150.323L148.63 141.444L149.78 141.55L149.555 143.986L149.411 143.512C149.752 142.895 150.25 142.435 150.903 142.131C151.557 141.816 152.313 141.698 153.17 141.777ZM162.852 151.796C161.995 151.717 161.24 151.454 160.588 151.007C159.948 150.55 159.462 149.965 159.129 149.252C158.798 148.528 158.673 147.726 158.754 146.846C158.836 145.956 159.106 145.19 159.563 144.55C160.02 143.91 160.604 143.429 161.316 143.108C162.028 142.787 162.818 142.667 163.686 142.747C164.566 142.828 165.326 143.092 165.967 143.537C166.62 143.984 167.107 144.563 167.427 145.275C167.76 145.988 167.885 146.79 167.803 147.681C167.722 148.56 167.452 149.326 166.994 149.977C166.548 150.618 165.963 151.105 165.239 151.436C164.516 151.756 163.72 151.876 162.852 151.796ZM162.95 150.73C163.593 150.789 164.175 150.701 164.697 150.465C165.221 150.217 165.647 149.847 165.977 149.355C166.319 148.852 166.522 148.256 166.585 147.569C166.649 146.869 166.559 146.247 166.314 145.701C166.08 145.157 165.727 144.721 165.257 144.393C164.788 144.054 164.238 143.855 163.607 143.797C162.975 143.739 162.398 143.834 161.875 144.081C161.353 144.317 160.921 144.681 160.58 145.173C160.239 145.664 160.036 146.26 159.972 146.959C159.908 147.647 159.999 148.269 160.243 148.826C160.489 149.372 160.846 149.814 161.315 150.153C161.785 150.48 162.33 150.673 162.95 150.73ZM172.644 152.699C171.81 152.622 171.188 152.337 170.778 151.844C170.369 151.352 170.202 150.694 170.278 149.871L171.047 141.532L172.248 141.643L171.485 149.914C171.437 150.432 171.53 150.845 171.763 151.15C172.008 151.457 172.378 151.634 172.874 151.679C173.404 151.728 173.858 151.616 174.236 151.344L174.579 152.246C174.322 152.438 174.02 152.57 173.673 152.64C173.336 152.711 172.993 152.731 172.644 152.699ZM169.184 144.346L169.276 143.348L174.773 143.855L174.681 144.853L169.184 144.346ZM180.165 153.392C179.24 153.307 178.446 153.04 177.783 152.592C177.12 152.133 176.622 151.547 176.29 150.834C175.959 150.11 175.834 149.308 175.915 148.429C175.996 147.549 176.254 146.789 176.688 146.146C177.134 145.505 177.702 145.023 178.391 144.7C179.093 144.367 179.855 144.238 180.678 144.314C181.512 144.391 182.233 144.651 182.841 145.093C183.46 145.526 183.925 146.103 184.233 146.825C184.543 147.536 184.657 148.337 184.575 149.227C184.569 149.284 184.558 149.345 184.54 149.412C184.535 149.468 184.53 149.53 184.523 149.598L176.794 148.885L176.877 147.989L183.963 148.642L183.457 148.954C183.516 148.311 183.428 147.729 183.192 147.207C182.968 146.674 182.632 146.245 182.185 145.92C181.737 145.594 181.203 145.403 180.583 145.346C179.974 145.289 179.414 145.38 178.903 145.617C178.393 145.854 177.978 146.214 177.661 146.697C177.344 147.179 177.155 147.747 177.095 148.401L177.077 148.587C177.015 149.264 177.106 149.875 177.352 150.421C177.609 150.956 177.99 151.395 178.493 151.737C179.008 152.069 179.609 152.266 180.297 152.33C180.838 152.38 181.349 152.33 181.829 152.181C182.32 152.033 182.753 151.777 183.128 151.414L183.733 152.254C183.294 152.691 182.765 153.006 182.144 153.199C181.535 153.393 180.875 153.458 180.165 153.392Z" fill="#949494"/>
<path d="M65.254 140.58L66.2989 129.248L66.7871 129.873L63.4552 129.566L63.555 128.484L67.5634 128.853L66.4717 140.692L65.254 140.58ZM70.2073 141.122C69.9592 141.099 69.7533 140.989 69.5895 140.792C69.437 140.596 69.3727 140.369 69.3966 140.109C69.4216 139.839 69.5264 139.627 69.7112 139.473C69.9072 139.32 70.1292 139.256 70.3772 139.279C70.6253 139.301 70.8261 139.405 70.9796 139.59C71.1445 139.776 71.2144 140.004 71.1894 140.275C71.1655 140.534 71.055 140.745 70.858 140.909C70.6722 141.074 70.4553 141.145 70.2073 141.122Z" fill="#949494"/>
<path d="M59.8535 174.194L59.933 173.331L65.2992 168.965C65.7908 168.567 66.1644 168.214 66.4201 167.908C66.6768 167.591 66.8581 167.289 66.9641 167.003C67.07 166.717 67.135 166.445 67.1589 166.185C67.2223 165.498 67.0354 164.935 66.5982 164.496C66.1723 164.059 65.5027 163.798 64.5894 163.714C63.8904 163.65 63.2603 163.699 62.6994 163.864C62.1497 164.029 61.6623 164.32 61.2374 164.735L60.4434 163.912C60.9556 163.413 61.5861 163.05 62.3347 162.824C63.0834 162.597 63.9031 162.525 64.7938 162.607C65.5944 162.681 66.2759 162.875 66.8383 163.188C67.4017 163.49 67.819 163.898 68.09 164.412C68.3722 164.927 68.4832 165.512 68.4229 166.165C68.3876 166.549 68.2964 166.921 68.1493 167.283C68.0135 167.646 67.7854 168.023 67.4651 168.414C67.157 168.795 66.7141 169.22 66.1364 169.69L61.212 173.705L60.9174 173.2L68.2577 173.877L68.1578 174.959L59.8535 174.194ZM70.7568 175.284C70.5087 175.262 70.3028 175.152 70.139 174.955C69.9865 174.759 69.9222 174.531 69.9462 174.272C69.9711 174.001 70.076 173.789 70.2607 173.635C70.4567 173.483 70.6787 173.418 70.9268 173.441C71.1748 173.464 71.3756 173.568 71.5292 173.752C71.694 173.938 71.7639 174.166 71.739 174.437C71.715 174.696 71.6046 174.908 71.4075 175.071C71.2218 175.236 71.0048 175.307 70.7568 175.284Z" fill="#949494"/>
<path d="M60.6731 206.356C59.8161 206.277 59.0168 206.067 58.275 205.726C57.5456 205.374 56.971 204.946 56.5513 204.441L57.2322 203.532C57.5792 203.962 58.062 204.336 58.6808 204.654C59.3109 204.974 60.0093 205.169 60.776 205.24C61.757 205.33 62.5265 205.185 63.0847 204.805C63.6542 204.425 63.9722 203.875 64.0387 203.153C64.1053 202.431 63.8989 201.832 63.4198 201.356C62.9519 200.881 62.1655 200.592 61.0605 200.49L60.2148 200.412L60.2975 199.516L64.3734 195.269L64.4988 195.758L57.9027 195.15L58.0025 194.068L65.6134 194.77L65.5339 195.632L61.458 199.879L60.9019 199.435L61.3586 199.477C62.7793 199.608 63.81 200.022 64.4509 200.718C65.103 201.415 65.3833 202.259 65.2918 203.251C65.2305 203.917 65.0175 204.5 64.653 205.001C64.2884 205.501 63.7707 205.874 63.0999 206.12C62.4404 206.366 61.6315 206.445 60.6731 206.356ZM67.5998 206.978C67.3517 206.955 67.1458 206.845 66.982 206.648C66.8295 206.452 66.7652 206.224 66.7891 205.965C66.8141 205.694 66.9189 205.482 67.1037 205.329C67.2997 205.176 67.5217 205.112 67.7698 205.134C68.0178 205.157 68.2186 205.261 68.3722 205.446C68.537 205.632 68.6069 205.86 68.5819 206.13C68.558 206.39 68.4475 206.601 68.2505 206.765C68.0647 206.93 67.8478 207.001 67.5998 206.978Z" fill="#949494"/>
<path d="M54.3097 234.505L54.3908 233.626L61.3892 226.357L62.7423 226.481L55.7946 233.755L55.1537 233.491L64.6758 234.369L64.576 235.452L54.3097 234.505ZM60.7034 238.233L60.9904 235.121L61.124 234.042L61.3767 231.302L62.5606 231.411L61.9212 238.345L60.7034 238.233ZM66.6434 238.866C66.3953 238.843 66.1894 238.733 66.0256 238.536C65.8731 238.34 65.8088 238.113 65.8328 237.853C65.8577 237.583 65.9626 237.371 66.1473 237.217C66.3433 237.065 66.5653 237 66.8134 237.023C67.0614 237.046 67.2622 237.149 67.4158 237.334C67.5806 237.52 67.6505 237.748 67.6256 238.019C67.6016 238.278 67.4912 238.49 67.2941 238.653C67.1084 238.818 66.8914 238.889 66.6434 238.866Z" fill="#949494"/>
<path d="M80.1493 176.068L81.241 164.229L82.4926 164.345L81.5007 175.101L88.1307 175.713L88.0308 176.795L80.1493 176.068ZM93.4869 177.384C92.5623 177.298 91.7682 177.032 91.1044 176.584C90.4418 176.125 89.9443 175.539 89.612 174.826C89.2808 174.102 89.1558 173.3 89.2369 172.42C89.318 171.541 89.5757 170.78 90.0102 170.138C90.456 169.497 91.0235 169.015 91.7128 168.692C92.4145 168.358 93.1768 168.23 93.9999 168.306C94.8343 168.382 95.5552 168.642 96.1625 169.085C96.7822 169.517 97.2464 170.094 97.555 170.817C97.8647 171.527 97.9785 172.328 97.8964 173.219C97.8912 173.275 97.8798 173.337 97.8623 173.403C97.8571 173.46 97.8514 173.522 97.8451 173.59L90.1159 172.877L90.1985 171.98L97.2851 172.634L96.7788 172.945C96.8381 172.303 96.7496 171.72 96.5135 171.198C96.2897 170.666 95.954 170.237 95.5064 169.911C95.0588 169.586 94.5249 169.394 93.9048 169.337C93.2959 169.281 92.7361 169.372 92.2252 169.609C91.7144 169.846 91.3003 170.206 90.9829 170.688C90.6655 171.171 90.4766 171.739 90.4163 172.393L90.3992 172.579C90.3368 173.255 90.4283 173.866 90.6736 174.412C90.9313 174.948 91.3115 175.386 91.8144 175.728C92.3297 176.06 92.9312 176.258 93.619 176.321C94.1602 176.371 94.6708 176.322 95.1508 176.173C95.642 176.025 96.075 175.769 96.4496 175.405L97.0544 176.246C96.6161 176.683 96.0867 176.998 95.4662 177.191C94.857 177.385 94.1973 177.449 93.4869 177.384ZM105.247 178.383L105.428 176.421L105.407 176.095L105.709 172.814C105.779 172.058 105.618 171.458 105.227 171.012C104.848 170.568 104.241 170.307 103.406 170.23C102.831 170.177 102.275 170.223 101.739 170.367C101.203 170.51 100.74 170.724 100.35 171.006L99.8911 170.06C100.377 169.718 100.946 169.475 101.596 169.33C102.247 169.174 102.922 169.128 103.621 169.193C104.771 169.299 105.63 169.668 106.197 170.3C106.777 170.922 107.013 171.814 106.906 172.975L106.397 178.489L105.247 178.383ZM102.178 178.185C101.513 178.124 100.942 177.963 100.466 177.703C100.002 177.433 99.6575 177.094 99.4335 176.687C99.2106 176.268 99.1225 175.805 99.1693 175.298C99.2119 174.836 99.3575 174.428 99.6061 174.076C99.8669 173.713 100.256 173.442 100.773 173.262C101.302 173.072 101.989 173.016 102.835 173.094L105.896 173.377L105.814 174.273L102.786 173.994C101.929 173.915 101.318 174.012 100.951 174.285C100.596 174.56 100.398 174.922 100.356 175.373C100.31 175.881 100.469 176.305 100.836 176.646C101.203 176.986 101.741 177.19 102.451 177.255C103.128 177.317 103.723 177.219 104.236 176.959C104.761 176.689 105.163 176.271 105.443 175.706L105.637 176.56C105.357 177.125 104.92 177.557 104.324 177.854C103.739 178.153 103.024 178.263 102.178 178.185ZM109.659 178.79L110.478 169.91L111.628 170.016L111.405 172.435L111.325 172.001C111.636 171.347 112.1 170.873 112.719 170.577C113.338 170.271 114.082 170.157 114.95 170.237L114.843 171.404C114.798 171.4 114.753 171.396 114.707 171.392C114.663 171.376 114.619 171.367 114.574 171.363C113.638 171.276 112.878 171.496 112.295 172.022C111.714 172.537 111.374 173.319 111.278 174.368L110.86 178.9L109.659 178.79ZM121.674 170.857C122.396 170.924 123.014 171.123 123.53 171.455C124.057 171.776 124.447 172.233 124.7 172.825C124.963 173.418 125.056 174.143 124.977 175L124.501 180.158L123.3 180.047L123.765 175.007C123.851 174.072 123.679 173.345 123.249 172.828C122.832 172.3 122.2 171.998 121.355 171.92C120.723 171.861 120.159 171.94 119.661 172.156C119.176 172.361 118.781 172.694 118.477 173.155C118.186 173.606 118.009 174.17 117.946 174.846L117.516 179.514L116.315 179.403L117.134 170.524L118.284 170.63L118.059 173.066L117.915 172.592C118.257 171.975 118.754 171.515 119.407 171.211C120.062 170.896 120.817 170.778 121.674 170.857ZM134.971 181.209C134.136 181.132 133.515 180.847 133.105 180.355C132.696 179.862 132.529 179.204 132.605 178.381L133.374 170.043L134.575 170.154L133.812 178.424C133.764 178.943 133.857 179.355 134.09 179.661C134.335 179.968 134.705 180.144 135.201 180.19C135.731 180.239 136.185 180.127 136.563 179.855L136.906 180.756C136.649 180.949 136.347 181.08 136 181.15C135.663 181.222 135.32 181.241 134.971 181.209ZM131.511 172.856L131.603 171.858L137.1 172.365L137.008 173.363L131.511 172.856ZM144.401 172.953C145.123 173.02 145.741 173.219 146.257 173.551C146.784 173.872 147.174 174.329 147.427 174.921C147.69 175.514 147.783 176.238 147.704 177.095L147.228 182.254L146.027 182.143L146.492 177.103C146.578 176.167 146.406 175.441 145.976 174.923C145.559 174.396 144.927 174.093 144.082 174.015C143.45 173.957 142.886 174.036 142.388 174.251C141.903 174.457 141.508 174.79 141.204 175.251C140.913 175.702 140.736 176.265 140.673 176.942L140.243 181.61L139.042 181.499L140.199 168.95L141.4 169.06L140.837 175.166L140.642 174.687C140.984 174.071 141.481 173.611 142.134 173.307C142.789 172.992 143.544 172.874 144.401 172.953ZM154.235 182.985C153.311 182.9 152.517 182.634 151.853 182.186C151.19 181.727 150.693 181.141 150.361 180.428C150.029 179.703 149.904 178.902 149.985 178.022C150.066 177.143 150.324 176.382 150.759 175.74C151.204 175.098 151.772 174.616 152.461 174.293C153.163 173.96 153.925 173.831 154.748 173.907C155.583 173.984 156.304 174.244 156.911 174.687C157.531 175.119 157.995 175.696 158.304 176.418C158.613 177.129 158.727 177.93 158.645 178.821C158.64 178.877 158.628 178.939 158.611 179.005C158.606 179.062 158.6 179.124 158.594 179.191L150.864 178.478L150.947 177.582L158.034 178.236L157.527 178.547C157.587 177.904 157.498 177.322 157.262 176.8C157.038 176.267 156.702 175.839 156.255 175.513C155.807 175.187 155.273 174.996 154.653 174.939C154.044 174.883 153.485 174.973 152.974 175.21C152.463 175.448 152.049 175.807 151.731 176.29C151.414 176.772 151.225 177.341 151.165 177.994L151.148 178.181C151.085 178.857 151.177 179.468 151.422 180.014C151.68 180.549 152.06 180.988 152.563 181.33C153.078 181.662 153.68 181.86 154.367 181.923C154.909 181.973 155.419 181.923 155.899 181.774C156.391 181.626 156.823 181.37 157.198 181.007L157.803 181.847C157.365 182.285 156.835 182.6 156.215 182.793C155.606 182.987 154.946 183.051 154.235 182.985ZM170.465 175.356C171.186 175.423 171.805 175.622 172.32 175.954C172.848 176.275 173.238 176.732 173.49 177.324C173.754 177.917 173.846 178.642 173.767 179.499L173.291 184.657L172.091 184.546L172.555 179.506C172.642 178.571 172.47 177.844 172.04 177.327C171.622 176.799 170.991 176.497 170.145 176.419C169.514 176.36 168.949 176.439 168.452 176.655C167.966 176.86 167.572 177.193 167.268 177.654C166.976 178.105 166.799 178.669 166.737 179.345L166.306 184.013L165.105 183.902L165.924 175.023L167.074 175.129L166.85 177.565L166.706 177.091C167.047 176.474 167.544 176.014 168.198 175.71C168.852 175.395 169.608 175.277 170.465 175.356ZM180.147 185.375C179.29 185.296 178.535 185.033 177.883 184.586C177.242 184.129 176.756 183.544 176.424 182.831C176.093 182.107 175.968 181.305 176.049 180.426C176.131 179.535 176.4 178.769 176.857 178.129C177.315 177.489 177.899 177.008 178.611 176.687C179.323 176.367 180.113 176.246 180.981 176.326C181.86 176.407 182.621 176.671 183.262 177.116C183.914 177.563 184.401 178.142 184.722 178.854C185.054 179.567 185.179 180.369 185.097 181.26C185.016 182.139 184.747 182.905 184.289 183.556C183.843 184.197 183.258 184.684 182.534 185.015C181.81 185.335 181.015 185.455 180.147 185.375ZM180.245 184.309C180.888 184.368 181.47 184.28 181.992 184.044C182.515 183.796 182.942 183.426 183.271 182.934C183.613 182.431 183.816 181.835 183.88 181.148C183.944 180.449 183.854 179.826 183.608 179.28C183.374 178.736 183.022 178.3 182.552 177.972C182.083 177.633 181.533 177.435 180.901 177.376C180.27 177.318 179.692 177.413 179.169 177.66C178.647 177.896 178.216 178.26 177.875 178.752C177.534 179.243 177.331 179.839 177.266 180.538C177.203 181.226 177.293 181.848 177.538 182.405C177.783 182.951 178.14 183.393 178.609 183.732C179.08 184.06 179.625 184.252 180.245 184.309ZM189.938 186.278C189.104 186.201 188.482 185.916 188.073 185.423C187.663 184.931 187.497 184.273 187.572 183.45L188.341 175.111L189.542 175.222L188.78 183.493C188.732 184.011 188.824 184.424 189.058 184.729C189.302 185.036 189.673 185.213 190.169 185.258C190.699 185.307 191.153 185.196 191.53 184.923L191.874 185.825C191.617 186.017 191.315 186.149 190.967 186.219C190.631 186.29 190.288 186.31 189.938 186.278ZM186.479 177.925L186.571 176.927L192.067 177.434L191.975 178.432L186.479 177.925ZM197.46 186.971C196.535 186.886 195.741 186.619 195.077 186.171C194.415 185.712 193.917 185.126 193.585 184.413C193.254 183.689 193.129 182.887 193.21 182.008C193.291 181.128 193.548 180.368 193.983 179.725C194.429 179.084 194.996 178.602 195.686 178.279C196.387 177.946 197.15 177.817 197.973 177.893C198.807 177.97 199.528 178.23 200.135 178.672C200.755 179.105 201.219 179.682 201.528 180.404C201.837 181.115 201.951 181.916 201.869 182.806C201.864 182.863 201.853 182.924 201.835 182.991C201.83 183.047 201.824 183.109 201.818 183.177L194.089 182.464L194.171 181.568L201.258 182.221L200.752 182.533C200.811 181.89 200.722 181.308 200.486 180.786C200.262 180.253 199.927 179.824 199.479 179.499C199.032 179.173 198.498 178.982 197.878 178.925C197.269 178.868 196.709 178.959 196.198 179.196C195.687 179.433 195.273 179.793 194.956 180.276C194.638 180.758 194.449 181.326 194.389 181.98L194.372 182.166C194.31 182.843 194.401 183.454 194.646 184C194.904 184.535 195.284 184.974 195.787 185.316C196.302 185.648 196.904 185.845 197.592 185.909C198.133 185.959 198.644 185.909 199.124 185.76C199.615 185.612 200.048 185.356 200.422 184.993L201.027 185.833C200.589 186.27 200.059 186.585 199.439 186.778C198.83 186.972 198.17 187.037 197.46 186.971Z" fill="#949494"/>
<path d="M77.2235 207.779L78.3152 195.94L82.7465 196.349C83.75 196.441 84.5975 196.684 85.289 197.078C85.9815 197.46 86.4914 197.973 86.8186 198.618C87.1581 199.252 87.2884 199.997 87.2093 200.854C87.1324 201.688 86.8685 202.392 86.4178 202.964C85.9793 203.527 85.3842 203.938 84.6324 204.198C83.8816 204.448 83.0045 204.526 82.001 204.433L78.2632 204.089L78.8744 203.565L78.4751 207.895L77.2235 207.779ZM85.308 208.525L82.6598 203.948L84.0128 204.073L86.678 208.651L85.308 208.525ZM78.865 203.667L78.3615 203.023L82.0654 203.365C83.2494 203.474 84.1697 203.297 84.8264 202.835C85.4943 202.373 85.8715 201.674 85.9578 200.739C86.0451 199.792 85.8026 199.03 85.2303 198.454C84.6693 197.879 83.7968 197.537 82.6128 197.428L78.9089 197.087L79.5216 196.546L78.865 203.667ZM92.9561 209.315C92.0315 209.23 91.2373 208.964 90.5736 208.516C89.9109 208.057 89.4134 207.471 89.0812 206.758C88.75 206.034 88.6249 205.232 88.706 204.352C88.7871 203.473 89.0449 202.712 89.4794 202.07C89.9251 201.429 90.4926 200.946 91.182 200.623C91.8836 200.29 92.646 200.161 93.4691 200.237C94.3035 200.314 95.0243 200.574 95.6317 201.017C96.2513 201.449 96.7155 202.026 97.0242 202.748C97.3339 203.459 97.4477 204.26 97.3655 205.151C97.3603 205.207 97.349 205.269 97.3314 205.335C97.3262 205.392 97.3205 205.454 97.3143 205.521L89.585 204.809L89.6677 203.912L96.7543 204.566L96.2479 204.877C96.3072 204.234 96.2188 203.652 95.9826 203.13C95.7588 202.598 95.4231 202.169 94.9755 201.843C94.528 201.518 93.9941 201.326 93.3739 201.269C92.7651 201.213 92.2052 201.303 91.6944 201.541C91.1835 201.778 90.7694 202.138 90.452 202.62C90.1346 203.102 89.9458 203.671 89.8855 204.325L89.8683 204.511C89.8059 205.187 89.8974 205.798 90.1427 206.344C90.4004 206.879 90.7807 207.318 91.2836 207.66C91.7988 207.992 92.4003 208.19 93.0881 208.253C93.6294 208.303 94.1399 208.253 94.6199 208.104C95.1112 207.956 95.5441 207.701 95.9188 207.337L96.5235 208.177C96.0852 208.615 95.5558 208.93 94.9354 209.123C94.3262 209.317 93.6664 209.381 92.9561 209.315ZM103.975 210.332C103.208 210.261 102.531 210.022 101.943 209.615C101.356 209.197 100.908 208.639 100.597 207.939C100.298 207.229 100.194 206.39 100.283 205.42C100.373 204.45 100.628 203.649 101.051 203.017C101.474 202.374 102.012 201.906 102.664 201.614C103.316 201.322 104.032 201.211 104.81 201.283C105.655 201.361 106.393 201.622 107.023 202.067C107.665 202.501 108.146 203.08 108.466 203.803C108.787 204.515 108.907 205.317 108.824 206.207C108.741 207.109 108.477 207.881 108.031 208.522C107.585 209.163 107.006 209.644 106.295 209.965C105.594 210.287 104.821 210.409 103.975 210.332ZM99.097 213.105L100.218 200.945L101.368 201.051L101.122 203.723L100.84 205.488L100.844 207.297L100.298 213.216L99.097 213.105ZM103.989 209.258C104.62 209.316 105.197 209.227 105.719 208.991C106.242 208.744 106.674 208.374 107.015 207.883C107.357 207.38 107.56 206.784 107.624 206.097C107.687 205.409 107.596 204.792 107.351 204.246C107.105 203.701 106.748 203.258 106.279 202.92C105.81 202.581 105.26 202.382 104.628 202.324C103.997 202.266 103.414 202.36 102.88 202.606C102.356 202.853 101.924 203.223 101.583 203.715C101.254 204.207 101.057 204.798 100.994 205.485C100.93 206.173 101.015 206.795 101.248 207.351C101.493 207.897 101.851 208.339 102.32 208.678C102.801 209.007 103.357 209.2 103.989 209.258ZM114.626 211.314C113.701 211.228 112.907 210.962 112.244 210.514C111.581 210.055 111.083 209.469 110.751 208.756C110.42 208.032 110.295 207.23 110.376 206.35C110.457 205.471 110.715 204.71 111.149 204.068C111.595 203.427 112.163 202.945 112.852 202.622C113.554 202.288 114.316 202.16 115.139 202.235C115.973 202.312 116.694 202.572 117.302 203.015C117.921 203.447 118.385 204.024 118.694 204.747C119.004 205.457 119.118 206.258 119.035 207.149C119.03 207.205 119.019 207.267 119.001 207.333C118.996 207.39 118.99 207.452 118.984 207.52L111.255 206.807L111.338 205.91L118.424 206.564L117.918 206.875C117.977 206.233 117.889 205.65 117.653 205.128C117.429 204.596 117.093 204.167 116.645 203.841C116.198 203.516 115.664 203.324 115.044 203.267C114.435 203.211 113.875 203.302 113.364 203.539C112.853 203.776 112.439 204.136 112.122 204.618C111.805 205.101 111.616 205.669 111.555 206.323L111.538 206.509C111.476 207.185 111.567 207.796 111.813 208.342C112.07 208.878 112.451 209.316 112.954 209.658C113.469 209.99 114.07 210.188 114.758 210.251C115.299 210.301 115.81 210.252 116.29 210.103C116.781 209.954 117.214 209.699 117.589 209.335L118.193 210.176C117.755 210.613 117.226 210.928 116.605 211.121C115.996 211.315 115.336 211.379 114.626 211.314ZM126.386 212.313L126.567 210.351L126.546 210.025L126.849 206.744C126.918 205.988 126.757 205.388 126.366 204.942C125.987 204.498 125.38 204.237 124.545 204.16C123.97 204.107 123.415 204.153 122.878 204.297C122.342 204.44 121.879 204.654 121.489 204.936L121.03 203.99C121.517 203.648 122.085 203.405 122.735 203.26C123.386 203.104 124.061 203.058 124.76 203.123C125.91 203.229 126.769 203.598 127.336 204.23C127.916 204.852 128.152 205.744 128.045 206.905L127.536 212.419L126.386 212.313ZM123.317 212.115C122.652 212.054 122.081 211.893 121.605 211.633C121.141 211.363 120.797 211.024 120.573 210.617C120.35 210.198 120.262 209.735 120.308 209.228C120.351 208.766 120.497 208.358 120.745 208.006C121.006 207.643 121.395 207.372 121.912 207.192C122.441 207.002 123.128 206.946 123.974 207.024L127.035 207.307L126.953 208.203L123.925 207.924C123.068 207.845 122.457 207.942 122.09 208.215C121.735 208.49 121.537 208.852 121.495 209.303C121.449 209.811 121.609 210.235 121.975 210.576C122.342 210.916 122.88 211.12 123.59 211.185C124.267 211.247 124.862 211.149 125.375 210.889C125.9 210.619 126.302 210.201 126.582 209.636L126.776 210.49C126.496 211.055 126.059 211.487 125.463 211.784C124.878 212.083 124.163 212.193 123.317 212.115ZM133.598 213.063C132.763 212.986 132.141 212.701 131.732 212.209C131.322 211.716 131.156 211.058 131.232 210.235L132 201.897L133.201 202.008L132.439 210.278C132.391 210.797 132.484 211.209 132.717 211.515C132.962 211.822 133.332 211.998 133.828 212.044C134.358 212.093 134.812 211.981 135.189 211.709L135.533 212.61C135.276 212.803 134.974 212.934 134.626 213.004C134.29 213.076 133.947 213.095 133.598 213.063ZM130.138 204.71L130.23 203.712L135.727 204.219L135.634 205.217L130.138 204.71ZM144.895 214.105C144.061 214.028 143.439 213.743 143.029 213.25C142.62 212.758 142.453 212.1 142.529 211.277L143.298 202.939L144.499 203.049L143.736 211.32C143.688 211.839 143.781 212.251 144.014 212.557C144.259 212.864 144.629 213.04 145.126 213.086C145.655 213.134 146.109 213.023 146.487 212.751L146.83 213.652C146.574 213.845 146.272 213.976 145.924 214.046C145.588 214.117 145.245 214.137 144.895 214.105ZM141.435 205.752L141.527 204.754L147.024 205.261L146.932 206.259L141.435 205.752ZM154.326 205.849C155.047 205.915 155.666 206.115 156.181 206.446C156.708 206.768 157.098 207.225 157.351 207.817C157.615 208.409 157.707 209.134 157.628 209.991L157.152 215.15L155.951 215.039L156.416 209.999C156.502 209.063 156.331 208.336 155.901 207.819C155.483 207.292 154.852 206.989 154.006 206.911C153.374 206.853 152.81 206.932 152.312 207.147C151.827 207.353 151.433 207.686 151.129 208.147C150.837 208.597 150.66 209.161 150.598 209.838L150.167 214.506L148.966 214.395L150.123 201.845L151.324 201.956L150.761 208.062L150.567 207.583C150.908 206.967 151.405 206.506 152.058 206.203C152.713 205.888 153.469 205.77 154.326 205.849ZM164.16 215.881C163.235 215.796 162.441 215.529 161.777 215.082C161.114 214.622 160.617 214.036 160.285 213.324C159.954 212.599 159.828 211.798 159.91 210.918C159.991 210.039 160.248 209.278 160.683 208.635C161.129 207.994 161.696 207.512 162.386 207.189C163.087 206.856 163.85 206.727 164.673 206.803C165.507 206.88 166.228 207.14 166.835 207.582C167.455 208.015 167.919 208.592 168.228 209.314C168.537 210.025 168.651 210.826 168.569 211.717C168.564 211.773 168.553 211.834 168.535 211.901C168.53 211.957 168.524 212.019 168.518 212.087L160.789 211.374L160.871 210.478L167.958 211.131L167.452 211.443C167.511 210.8 167.422 210.218 167.186 209.696C166.962 209.163 166.627 208.734 166.179 208.409C165.732 208.083 165.198 207.892 164.578 207.835C163.969 207.779 163.409 207.869 162.898 208.106C162.387 208.343 161.973 208.703 161.656 209.186C161.338 209.668 161.149 210.236 161.089 210.89L161.072 211.076C161.01 211.753 161.101 212.364 161.346 212.91C161.604 213.445 161.984 213.884 162.487 214.226C163.002 214.558 163.604 214.755 164.292 214.819C164.833 214.869 165.344 214.819 165.823 214.67C166.315 214.522 166.748 214.266 167.122 213.903L167.727 214.743C167.289 215.18 166.759 215.495 166.139 215.688C165.53 215.882 164.87 215.947 164.16 215.881ZM179.605 217.305C178.839 217.235 178.161 216.996 177.573 216.589C176.986 216.171 176.538 215.613 176.227 214.913C175.928 214.203 175.824 213.363 175.913 212.394C176.003 211.424 176.259 210.623 176.681 209.991C177.104 209.348 177.642 208.88 178.294 208.588C178.946 208.295 179.662 208.185 180.44 208.257C181.285 208.335 182.023 208.596 182.653 209.041C183.295 209.475 183.776 210.054 184.096 210.777C184.417 211.489 184.537 212.291 184.454 213.181C184.371 214.083 184.107 214.855 183.661 215.496C183.215 216.137 182.637 216.618 181.925 216.939C181.224 217.261 180.451 217.383 179.605 217.305ZM174.727 220.079L175.848 207.919L176.998 208.025L176.752 210.697L176.47 212.462L176.474 214.271L175.928 220.19L174.727 220.079ZM179.619 216.232C180.25 216.29 180.827 216.201 181.349 215.965C181.872 215.718 182.304 215.348 182.645 214.857C182.988 214.354 183.19 213.758 183.254 213.071C183.317 212.383 183.226 211.766 182.981 211.22C182.735 210.675 182.378 210.232 181.909 209.893C181.44 209.555 180.89 209.356 180.258 209.298C179.627 209.24 179.044 209.334 178.51 209.58C177.986 209.827 177.554 210.197 177.213 210.689C176.884 211.181 176.687 211.771 176.624 212.459C176.56 213.147 176.645 213.769 176.878 214.325C177.123 214.871 177.481 215.313 177.95 215.652C178.431 215.98 178.988 216.174 179.619 216.232ZM186.492 217.855L187.311 208.976L188.461 209.082L188.238 211.5L188.159 211.067C188.469 210.413 188.934 209.938 189.552 209.643C190.172 209.336 190.916 209.223 191.784 209.303L191.676 210.47C191.631 210.466 191.586 210.462 191.541 210.458C191.497 210.442 191.452 210.432 191.407 210.428C190.471 210.342 189.712 210.562 189.129 211.088C188.547 211.603 188.208 212.385 188.111 213.433L187.693 217.966L186.492 217.855ZM196.677 218.88C195.821 218.801 195.066 218.538 194.413 218.091C193.773 217.634 193.287 217.049 192.955 216.336C192.624 215.612 192.499 214.81 192.58 213.931C192.662 213.04 192.931 212.274 193.388 211.634C193.845 210.994 194.43 210.514 195.142 210.193C195.854 209.872 196.644 209.751 197.512 209.831C198.391 209.912 199.152 210.176 199.793 210.621C200.445 211.068 200.932 211.648 201.253 212.359C201.585 213.072 201.71 213.874 201.628 214.765C201.547 215.644 201.278 216.41 200.819 217.061C200.374 217.702 199.789 218.189 199.065 218.52C198.341 218.84 197.546 218.96 196.677 218.88ZM196.776 217.814C197.418 217.873 198.001 217.785 198.523 217.549C199.046 217.301 199.473 216.931 199.802 216.439C200.144 215.936 200.347 215.34 200.41 214.653C200.475 213.954 200.384 213.331 200.139 212.785C199.905 212.241 199.553 211.805 199.083 211.477C198.614 211.138 198.064 210.94 197.432 210.881C196.801 210.823 196.223 210.918 195.7 211.165C195.178 211.401 194.747 211.765 194.406 212.257C194.065 212.748 193.862 213.344 193.797 214.043C193.734 214.731 193.824 215.353 194.069 215.91C194.314 216.456 194.671 216.898 195.14 217.237C195.61 217.565 196.156 217.757 196.776 217.814ZM207.349 219.864C206.469 219.783 205.698 219.518 205.034 219.07C204.383 218.612 203.891 218.027 203.559 217.314C203.227 216.59 203.102 215.788 203.183 214.908C203.266 214.018 203.535 213.252 203.992 212.612C204.449 211.972 205.039 211.492 205.762 211.172C206.497 210.853 207.304 210.734 208.183 210.815C208.939 210.885 209.607 211.094 210.189 211.444C210.771 211.793 211.21 212.277 211.505 212.895L210.553 213.422C210.29 212.943 209.943 212.575 209.511 212.319C209.08 212.063 208.6 211.911 208.07 211.862C207.438 211.804 206.855 211.898 206.321 212.144C205.787 212.38 205.35 212.743 205.009 213.235C204.668 213.726 204.466 214.322 204.401 215.021C204.337 215.72 204.427 216.342 204.672 216.888C204.918 217.434 205.281 217.876 205.761 218.216C206.242 218.545 206.799 218.738 207.43 218.797C207.96 218.845 208.461 218.784 208.931 218.611C209.402 218.438 209.81 218.146 210.155 217.734L210.995 218.426C210.593 218.969 210.073 219.364 209.436 219.613C208.8 219.85 208.104 219.933 207.349 219.864ZM216.815 220.737C215.89 220.651 215.096 220.385 214.432 219.937C213.77 219.478 213.272 218.892 212.94 218.179C212.609 217.455 212.484 216.653 212.565 215.773C212.646 214.894 212.904 214.133 213.338 213.491C213.784 212.85 214.352 212.368 215.041 212.045C215.742 211.711 216.505 211.583 217.328 211.658C218.162 211.735 218.883 211.995 219.491 212.438C220.11 212.87 220.574 213.447 220.883 214.17C221.193 214.88 221.307 215.681 221.224 216.572C221.219 216.628 221.208 216.69 221.19 216.756C221.185 216.813 221.179 216.875 221.173 216.942L213.444 216.23L213.527 215.333L220.613 215.987L220.107 216.298C220.166 215.656 220.078 215.073 219.842 214.551C219.618 214.019 219.282 213.59 218.834 213.264C218.387 212.939 217.853 212.747 217.233 212.69C216.624 212.634 216.064 212.724 215.553 212.962C215.042 213.199 214.628 213.559 214.311 214.041C213.994 214.524 213.805 215.092 213.744 215.746L213.727 215.932C213.665 216.608 213.756 217.219 214.002 217.765C214.259 218.301 214.64 218.739 215.142 219.081C215.658 219.413 216.259 219.611 216.947 219.674C217.488 219.724 217.999 219.675 218.479 219.525C218.97 219.377 219.403 219.122 219.778 218.758L220.382 219.599C219.944 220.036 219.415 220.351 218.794 220.544C218.185 220.738 217.525 220.802 216.815 220.737ZM225.635 221.55C224.903 221.482 224.218 221.317 223.583 221.054C222.949 220.779 222.46 220.467 222.117 220.117L222.746 219.22C223.082 219.523 223.522 219.803 224.067 220.058C224.613 220.301 225.197 220.452 225.817 220.509C226.662 220.587 227.283 220.514 227.679 220.289C228.076 220.052 228.295 219.714 228.336 219.274C228.366 218.947 228.282 218.684 228.084 218.484C227.899 218.273 227.641 218.107 227.312 217.986C226.983 217.853 226.613 217.734 226.202 217.628C225.791 217.522 225.381 217.404 224.972 217.276C224.574 217.148 224.214 216.984 223.892 216.784C223.57 216.572 223.316 216.304 223.13 215.98C222.955 215.657 222.891 215.242 222.938 214.734C222.982 214.249 223.158 213.828 223.464 213.469C223.77 213.111 224.192 212.849 224.73 212.682C225.281 212.506 225.934 212.452 226.69 212.522C227.265 212.575 227.832 212.707 228.393 212.918C228.954 213.117 229.41 213.358 229.759 213.641L229.146 214.556C228.776 214.249 228.371 214.019 227.93 213.864C227.491 213.699 227.046 213.595 226.595 213.553C225.794 213.48 225.189 213.566 224.78 213.812C224.383 214.049 224.164 214.381 224.125 214.81C224.094 215.148 224.171 215.422 224.356 215.633C224.553 215.844 224.815 216.022 225.143 216.166C225.483 216.299 225.853 216.419 226.252 216.524C226.663 216.63 227.067 216.752 227.464 216.891C227.873 217.02 228.238 217.185 228.561 217.385C228.896 217.575 229.151 217.832 229.326 218.155C229.513 218.468 229.584 218.867 229.539 219.351C229.492 219.87 229.303 220.308 228.975 220.664C228.659 221.01 228.215 221.265 227.642 221.428C227.082 221.581 226.413 221.622 225.635 221.55ZM233.894 222.311C233.161 222.244 232.477 222.078 231.842 221.815C231.207 221.541 230.719 221.228 230.376 220.878L231.004 219.981C231.34 220.285 231.781 220.564 232.326 220.819C232.872 221.063 233.455 221.213 234.075 221.271C234.921 221.349 235.542 221.275 235.938 221.05C236.335 220.814 236.553 220.476 236.594 220.036C236.624 219.709 236.54 219.445 236.343 219.245C236.157 219.035 235.9 218.869 235.57 218.748C235.241 218.615 234.871 218.496 234.46 218.389C234.049 218.283 233.639 218.166 233.23 218.037C232.833 217.91 232.473 217.746 232.15 217.545C231.828 217.334 231.574 217.066 231.388 216.742C231.213 216.418 231.149 216.003 231.196 215.496C231.241 215.011 231.416 214.589 231.722 214.231C232.028 213.872 232.45 213.61 232.989 213.444C233.539 213.267 234.193 213.214 234.948 213.283C235.523 213.336 236.091 213.468 236.651 213.679C237.213 213.879 237.668 214.12 238.017 214.402L237.404 215.318C237.035 215.011 236.629 214.78 236.189 214.626C235.749 214.46 235.304 214.356 234.853 214.315C234.052 214.241 233.447 214.327 233.038 214.574C232.641 214.81 232.423 215.143 232.383 215.571C232.352 215.909 232.429 216.184 232.614 216.394C232.811 216.606 233.073 216.783 233.401 216.927C233.741 217.061 234.111 217.18 234.511 217.285C234.922 217.391 235.325 217.514 235.722 217.653C236.131 217.782 236.497 217.946 236.819 218.146C237.154 218.336 237.409 218.593 237.584 218.916C237.771 219.229 237.843 219.628 237.798 220.113C237.75 220.632 237.562 221.069 237.233 221.425C236.917 221.771 236.473 222.026 235.901 222.189C235.341 222.343 234.672 222.383 233.894 222.311Z" fill="#949494"/>
<path d="M72.4074 239.316L78.9113 227.976L80.146 228.089L84.4665 240.428L83.1472 240.306L79.1994 228.736L79.7068 228.782L73.7097 239.436L72.4074 239.316ZM74.8301 236.349L75.2958 235.369L82.1794 236.004L82.4579 237.053L74.8301 236.349ZM91.5305 232.039C92.2522 232.105 92.8706 232.305 93.3858 232.636C93.9134 232.958 94.3034 233.415 94.5558 234.006C94.8195 234.599 94.9119 235.324 94.8329 236.181L94.3572 241.34L93.1564 241.229L93.6211 236.189C93.7074 235.253 93.5356 234.526 93.1057 234.009C92.6881 233.482 92.0565 233.179 91.2109 233.101C90.5794 233.043 90.015 233.122 89.5175 233.337C89.0323 233.543 88.6377 233.876 88.3337 234.337C88.042 234.787 87.8649 235.351 87.8025 236.028L87.3721 240.696L86.1712 240.585L86.99 231.705L88.1401 231.812L87.9155 234.247L87.7716 233.773C88.1128 233.157 88.61 232.696 89.2635 232.393C89.9179 232.078 90.6736 231.96 91.5305 232.039ZM101.128 242.049C100.282 241.971 99.5388 241.709 98.8976 241.264C98.2677 240.819 97.7923 240.241 97.4713 239.529C97.1514 238.806 97.0325 237.999 97.1146 237.108C97.1978 236.206 97.4622 235.434 97.908 234.793C98.3537 234.152 98.9264 233.676 99.6259 233.365C100.338 233.044 101.117 232.923 101.962 233.001C102.74 233.073 103.418 233.311 103.994 233.717C104.582 234.124 105.025 234.682 105.324 235.392C105.634 236.091 105.745 236.926 105.656 237.896C105.567 238.854 105.312 239.655 104.888 240.298C104.465 240.941 103.927 241.415 103.273 241.718C102.632 242.012 101.917 242.122 101.128 242.049ZM101.311 240.992C101.942 241.05 102.519 240.961 103.041 240.725C103.575 240.478 104.007 240.109 104.337 239.616C104.679 239.113 104.882 238.518 104.945 237.83C105.01 237.131 104.919 236.509 104.674 235.963C104.44 235.418 104.082 234.982 103.601 234.653C103.132 234.314 102.582 234.115 101.95 234.057C101.33 234 100.758 234.095 100.235 234.343C99.7131 234.579 99.2815 234.943 98.9405 235.434C98.5995 235.926 98.3968 236.521 98.3323 237.22C98.2689 237.908 98.3594 238.53 98.6036 239.087C98.849 239.633 99.2062 240.075 99.6753 240.414C100.145 240.742 100.691 240.934 101.311 240.992ZM104.569 242.281L104.815 239.609L105.099 237.827L105.095 236.019L105.675 229.727L106.876 229.838L105.719 242.387L104.569 242.281ZM113.49 243.104L114.647 230.554L115.848 230.665L114.691 243.215L113.49 243.104ZM121.796 243.955C120.871 243.87 120.077 243.603 119.413 243.156C118.751 242.696 118.253 242.11 117.921 241.397C117.59 240.673 117.465 239.871 117.546 238.992C117.627 238.112 117.885 237.352 118.319 236.709C118.765 236.068 119.332 235.586 120.022 235.263C120.723 234.93 121.486 234.801 122.309 234.877C123.143 234.954 123.864 235.214 124.471 235.656C125.091 236.089 125.555 236.666 125.864 237.388C126.174 238.099 126.287 238.9 126.205 239.79C126.2 239.847 126.189 239.908 126.171 239.975C126.166 240.031 126.16 240.093 126.154 240.161L118.425 239.448L118.507 238.552L125.594 239.205L125.088 239.517C125.147 238.874 125.059 238.292 124.822 237.77C124.599 237.237 124.263 236.808 123.815 236.483C123.368 236.157 122.834 235.966 122.214 235.909C121.605 235.853 121.045 235.943 120.534 236.18C120.023 236.417 119.609 236.777 119.292 237.26C118.974 237.742 118.786 238.31 118.725 238.964L118.708 239.15C118.646 239.827 118.737 240.438 118.983 240.984C119.24 241.519 119.62 241.958 120.123 242.3C120.639 242.632 121.24 242.829 121.928 242.893C122.469 242.943 122.98 242.893 123.46 242.744C123.951 242.596 124.384 242.34 124.759 241.977L125.363 242.817C124.925 243.254 124.396 243.569 123.775 243.762C123.166 243.956 122.506 244.021 121.796 243.955ZM133.556 244.954L133.737 242.992L133.716 242.666L134.018 239.385C134.088 238.63 133.927 238.029 133.536 237.584C133.157 237.139 132.549 236.879 131.715 236.802C131.14 236.749 130.584 236.794 130.048 236.938C129.512 237.082 129.049 237.295 128.659 237.578L128.2 236.631C128.686 236.289 129.255 236.046 129.905 235.901C130.556 235.745 131.231 235.7 131.93 235.764C133.08 235.87 133.939 236.239 134.506 236.872C135.085 237.494 135.322 238.385 135.215 239.547L134.706 245.06L133.556 244.954ZM130.487 244.757C129.822 244.695 129.251 244.535 128.775 244.275C128.31 244.004 127.966 243.666 127.742 243.258C127.52 242.84 127.431 242.377 127.478 241.869C127.521 241.407 127.666 241 127.915 240.647C128.176 240.285 128.565 240.014 129.082 239.834C129.611 239.644 130.298 239.588 131.144 239.666L134.205 239.948L134.123 240.845L131.095 240.565C130.238 240.486 129.627 240.584 129.26 240.857C128.905 241.131 128.707 241.494 128.665 241.945C128.618 242.452 128.778 242.876 129.145 243.217C129.512 243.558 130.05 243.761 130.76 243.827C131.437 243.889 132.032 243.79 132.544 243.531C133.07 243.261 133.472 242.843 133.752 242.277L133.946 243.131C133.666 243.697 133.229 244.128 132.633 244.426C132.048 244.724 131.333 244.835 130.487 244.757ZM137.968 245.361L138.786 236.482L139.937 236.588L139.714 239.006L139.634 238.573C139.945 237.919 140.409 237.444 141.028 237.149C141.647 236.842 142.391 236.729 143.259 236.809L143.152 237.976C143.107 237.972 143.062 237.968 143.016 237.963C142.972 237.948 142.928 237.938 142.883 237.934C141.947 237.848 141.187 238.068 140.604 238.594C140.022 239.109 139.683 239.89 139.586 240.939L139.169 245.472L137.968 245.361ZM149.983 237.429C150.705 237.495 151.323 237.695 151.838 238.026C152.366 238.348 152.756 238.805 153.008 239.396C153.272 239.989 153.365 240.714 153.286 241.571L152.81 246.73L151.609 246.619L152.074 241.579C152.16 240.643 151.988 239.916 151.558 239.399C151.141 238.872 150.509 238.569 149.664 238.491C149.032 238.433 148.468 238.512 147.97 238.727C147.485 238.933 147.09 239.266 146.786 239.727C146.495 240.177 146.318 240.741 146.255 241.418L145.825 246.086L144.624 245.975L145.443 237.095L146.593 237.202L146.368 239.637L146.224 239.163C146.565 238.546 147.063 238.086 147.716 237.783C148.371 237.468 149.126 237.35 149.983 237.429ZM160.48 247.437L161.299 238.558L162.5 238.668L161.681 247.548L160.48 247.437ZM162.089 236.652C161.84 236.629 161.64 236.525 161.486 236.34C161.333 236.156 161.267 235.945 161.289 235.708C161.31 235.471 161.413 235.282 161.597 235.14C161.782 234.986 161.998 234.921 162.246 234.944C162.494 234.966 162.695 235.065 162.85 235.238C163.005 235.412 163.071 235.617 163.049 235.853C163.026 236.101 162.922 236.302 162.738 236.456C162.564 236.61 162.348 236.676 162.089 236.652ZM167.822 248.199C166.987 248.122 166.366 247.838 165.956 247.345C165.547 246.852 165.38 246.194 165.456 245.371L166.225 237.033L167.426 237.144L166.663 245.414C166.615 245.933 166.708 246.345 166.941 246.651C167.186 246.958 167.556 247.134 168.052 247.18C168.582 247.229 169.036 247.117 169.414 246.845L169.757 247.747C169.5 247.939 169.198 248.07 168.851 248.141C168.514 248.212 168.171 248.231 167.822 248.199ZM164.362 239.846L164.454 238.849L169.951 239.355L169.859 240.353L164.362 239.846ZM172.169 248.6C171.921 248.577 171.715 248.467 171.551 248.27C171.399 248.074 171.334 247.847 171.358 247.587C171.383 247.317 171.488 247.105 171.673 246.951C171.869 246.798 172.091 246.734 172.339 246.757C172.587 246.779 172.788 246.883 172.941 247.068C173.106 247.254 173.176 247.482 173.151 247.753C173.127 248.012 173.017 248.223 172.82 248.387C172.634 248.552 172.417 248.623 172.169 248.6Z" fill="#949494"/>
<path d="M177.186 345.09L177.245 344.443L181.27 341.169C181.638 340.87 181.919 340.606 182.11 340.376C182.303 340.138 182.439 339.912 182.518 339.697C182.598 339.483 182.647 339.279 182.665 339.084C182.712 338.568 182.572 338.146 182.244 337.817C181.925 337.489 181.422 337.294 180.737 337.231C180.213 337.182 179.741 337.22 179.32 337.343C178.908 337.467 178.542 337.685 178.223 337.997L177.628 337.379C178.012 337.005 178.485 336.733 179.046 336.563C179.608 336.393 180.223 336.339 180.891 336.4C181.491 336.456 182.002 336.601 182.424 336.836C182.847 337.063 183.16 337.369 183.363 337.754C183.575 338.14 183.658 338.579 183.613 339.069C183.586 339.357 183.518 339.636 183.407 339.907C183.306 340.179 183.134 340.462 182.894 340.755C182.663 341.041 182.331 341.36 181.898 341.713L178.204 344.724L177.983 344.345L183.489 344.853L183.414 345.665L177.186 345.09ZM188.169 346.18C187.382 346.107 186.734 345.873 186.225 345.476C185.717 345.071 185.353 344.526 185.135 343.84C184.918 343.147 184.852 342.335 184.938 341.404C185.03 340.398 185.277 339.572 185.678 338.927C186.088 338.274 186.613 337.802 187.254 337.512C187.895 337.221 188.617 337.113 189.42 337.187C189.818 337.223 190.195 337.297 190.551 337.406C190.908 337.516 191.218 337.668 191.481 337.863L191.046 338.565C190.831 338.392 190.579 338.262 190.288 338.175C189.999 338.08 189.689 338.018 189.359 337.987C188.404 337.899 187.61 338.133 186.979 338.689C186.356 339.245 185.989 340.128 185.878 341.338C185.86 341.524 185.847 341.757 185.839 342.038C185.839 342.311 185.865 342.586 185.916 342.863L185.621 342.593C185.755 342.162 185.971 341.807 186.269 341.527C186.569 341.239 186.929 341.034 187.35 340.91C187.77 340.787 188.222 340.748 188.704 340.792C189.296 340.847 189.806 341.005 190.234 341.266C190.662 341.527 190.984 341.868 191.201 342.289C191.418 342.71 191.502 343.191 191.452 343.732C191.401 344.282 191.226 344.752 190.925 345.142C190.626 345.524 190.233 345.807 189.747 345.993C189.27 346.17 188.744 346.233 188.169 346.18ZM188.202 345.403C188.625 345.442 189.004 345.4 189.339 345.277C189.684 345.147 189.963 344.947 190.175 344.676C190.388 344.397 190.513 344.063 190.549 343.674C190.603 343.091 190.443 342.607 190.069 342.223C189.703 341.84 189.178 341.616 188.493 341.553C188.036 341.511 187.631 341.559 187.277 341.697C186.923 341.835 186.636 342.043 186.414 342.321C186.193 342.591 186.065 342.911 186.031 343.283C186.001 343.605 186.061 343.922 186.212 344.234C186.363 344.538 186.603 344.799 186.933 345.017C187.272 345.227 187.695 345.356 188.202 345.403ZM197.316 347.023C196.817 346.977 196.358 346.824 195.938 346.564C195.527 346.304 195.209 345.959 194.984 345.529L195.588 344.945C195.801 345.323 196.059 345.62 196.363 345.835C196.668 346.051 197.014 346.177 197.403 346.213C198.503 346.314 199.112 345.714 199.232 344.411L199.728 339.033L196.481 338.733L196.556 337.922L200.729 338.306L200.162 344.459C200.075 345.397 199.791 346.079 199.308 346.503C198.834 346.929 198.17 347.102 197.316 347.023ZM205.283 347.745C204.716 347.693 204.231 347.542 203.828 347.291C203.424 347.041 203.124 346.693 202.926 346.249C202.737 345.805 202.671 345.266 202.73 344.631L203.087 340.762L203.987 340.846L203.64 344.613C203.574 345.323 203.698 345.876 204.011 346.272C204.334 346.66 204.812 346.883 205.446 346.941C205.911 346.984 206.322 346.928 206.677 346.774C207.042 346.611 207.33 346.356 207.541 346.009C207.76 345.662 207.894 345.235 207.94 344.728L208.262 341.24L209.163 341.323L208.549 347.982L207.686 347.903L207.854 346.076L207.963 346.419C207.707 346.89 207.342 347.244 206.868 347.482C206.403 347.712 205.875 347.8 205.283 347.745ZM215.078 341.804C215.619 341.854 216.083 342.004 216.469 342.252C216.865 342.494 217.158 342.836 217.347 343.28C217.545 343.725 217.614 344.268 217.555 344.911L217.198 348.78L216.297 348.697L216.646 344.917C216.711 344.215 216.582 343.67 216.259 343.282C215.946 342.886 215.472 342.659 214.838 342.601C214.365 342.557 213.941 342.616 213.568 342.778C213.204 342.932 212.908 343.182 212.68 343.528C212.462 343.866 212.329 344.288 212.282 344.796L211.959 348.297L211.059 348.214L211.673 341.554L212.535 341.634L212.367 343.46L212.259 343.105C212.515 342.642 212.888 342.297 213.378 342.07C213.869 341.833 214.435 341.745 215.078 341.804ZM222.454 349.328C221.76 349.265 221.165 349.065 220.667 348.729C220.17 348.384 219.797 347.945 219.547 347.41C219.299 346.867 219.205 346.266 219.266 345.606C219.327 344.946 219.52 344.376 219.846 343.894C220.18 343.413 220.606 343.052 221.123 342.809C221.649 342.559 222.221 342.463 222.838 342.52C223.464 342.578 224.005 342.772 224.46 343.104C224.925 343.429 225.273 343.862 225.505 344.403C225.737 344.936 225.822 345.537 225.761 346.205C225.757 346.247 225.748 346.293 225.735 346.343C225.731 346.386 225.727 346.432 225.722 346.483L219.925 345.948L219.987 345.276L225.302 345.766L224.922 346C224.967 345.518 224.901 345.081 224.723 344.689C224.556 344.29 224.304 343.968 223.968 343.724C223.632 343.48 223.232 343.337 222.767 343.294C222.31 343.252 221.89 343.319 221.507 343.497C221.124 343.675 220.814 343.945 220.576 344.307C220.338 344.669 220.196 345.095 220.151 345.585L220.138 345.725C220.091 346.232 220.16 346.691 220.344 347.1C220.537 347.501 220.822 347.831 221.199 348.087C221.586 348.336 222.037 348.484 222.553 348.532C222.959 348.569 223.341 348.532 223.701 348.42C224.07 348.309 224.395 348.117 224.676 347.845L225.129 348.475C224.8 348.803 224.403 349.039 223.938 349.184C223.481 349.329 222.986 349.378 222.454 349.328ZM226.57 351.512L227.344 349.217L227.396 349.771C227.201 349.753 227.042 349.675 226.919 349.536C226.803 349.397 226.755 349.226 226.774 349.023C226.793 348.82 226.871 348.661 227.01 348.546C227.157 348.432 227.323 348.383 227.509 348.4C227.704 348.418 227.854 348.5 227.96 348.647C228.074 348.794 228.123 348.96 228.106 349.146C228.1 349.214 228.089 349.281 228.074 349.348C228.06 349.415 228.036 349.489 228.003 349.572C227.969 349.654 227.926 349.752 227.873 349.867L227.179 351.568L226.57 351.512ZM232.533 350.194L232.593 349.547L236.617 346.272C236.986 345.974 237.266 345.709 237.458 345.48C237.651 345.242 237.787 345.015 237.866 344.801C237.945 344.587 237.994 344.382 238.012 344.188C238.06 343.672 237.92 343.25 237.592 342.921C237.272 342.593 236.77 342.397 236.085 342.334C235.561 342.286 235.088 342.323 234.667 342.447C234.255 342.571 233.89 342.788 233.571 343.1L232.976 342.482C233.36 342.108 233.832 341.836 234.394 341.667C234.955 341.497 235.57 341.442 236.238 341.504C236.839 341.559 237.35 341.705 237.772 341.94C238.194 342.166 238.507 342.472 238.71 342.858C238.922 343.244 239.005 343.682 238.96 344.173C238.934 344.46 238.865 344.74 238.755 345.011C238.653 345.283 238.482 345.566 238.242 345.859C238.011 346.145 237.679 346.464 237.245 346.816L233.552 349.827L233.331 349.449L238.836 349.956L238.761 350.768L232.533 350.194ZM243.415 351.274C242.73 351.211 242.137 350.977 241.637 350.573C241.138 350.16 240.767 349.606 240.524 348.91C240.282 348.205 240.205 347.379 240.292 346.432C240.379 345.485 240.606 344.691 240.972 344.051C241.339 343.403 241.805 342.926 242.371 342.62C242.937 342.305 243.563 342.179 244.248 342.243C244.933 342.306 245.525 342.544 246.024 342.956C246.524 343.361 246.895 343.915 247.137 344.62C247.388 345.317 247.47 346.139 247.383 347.086C247.296 348.033 247.064 348.83 246.689 349.478C246.323 350.118 245.857 350.595 245.291 350.91C244.725 351.216 244.1 351.337 243.415 351.274ZM243.492 350.437C244.016 350.485 244.486 350.388 244.901 350.145C245.316 349.893 245.659 349.507 245.928 348.986C246.199 348.456 246.371 347.794 246.444 346.999C246.518 346.204 246.469 345.526 246.299 344.965C246.13 344.395 245.864 343.952 245.501 343.637C245.138 343.314 244.695 343.128 244.17 343.08C243.663 343.033 243.197 343.135 242.773 343.386C242.35 343.628 242.003 344.014 241.733 344.544C241.463 345.065 241.291 345.722 241.218 346.517C241.145 347.312 241.193 347.995 241.362 348.565C241.532 349.126 241.802 349.569 242.173 349.893C242.545 350.209 242.985 350.39 243.492 350.437ZM249.829 351.789L250.613 343.29L250.979 343.759L248.48 343.528L248.555 342.716L251.561 342.994L250.742 351.873L249.829 351.789ZM254.425 352.213L259.037 344.092L259.279 344.524L253.786 344.018L254.297 343.617L254.103 345.723L253.202 345.64L253.43 343.166L259.95 343.767L259.89 344.414L255.415 352.304L254.425 352.213Z" fill="#949494"/>
</svg>
